<svg width="78" height="62" viewBox="0 0 78 62" fill="none" xmlns="http://www.w3.org/2000/svg">
<path d="M25.9943 21.3081C25.9943 21.1506 25.9943 18.8594 25.9943 18.8594H24.6327C24.6327 18.8594 24.6327 21.115 24.6327 21.1862C24.6327 21.6028 24.2467 21.8822 23.5964 21.8822C22.9156 21.8822 22.5448 21.6129 22.5448 21.1811C22.5448 21.11 22.5448 18.8594 22.5448 18.8594H21.168C21.168 18.8594 21.168 20.9982 21.168 21.1811C21.168 22.3902 22.1586 22.9033 23.5405 22.9033C25.0189 22.9033 25.9943 22.3851 25.9943 21.3081Z" fill="#BBBDC3"/>
<path d="M30.5805 22.8474V21.7857H28.1522V18.8594H26.7754V22.8474H30.5805Z" fill="#BBBDC3"/>
<path d="M34.6724 19.8603V18.8594H29.9121V19.8603H31.5937V22.8474H32.9857V19.8603H34.6724Z" fill="#BBBDC3"/>
<path d="M36.5025 22.8474V18.8594H35.1055V22.8474H36.5025Z" fill="#BBBDC3"/>
<path d="M42.911 22.8474V18.8594H41.1888L40.1016 21.2523L39.0653 18.8594H37.2871V22.8474H38.5826V20.6934L39.5174 22.8474H40.6757L41.6206 20.6934V22.8474H42.911Z" fill="#BBBDC3"/>
<path d="M45.0703 22.1108H47.2243L47.575 22.8474H49.0431L47.0313 18.8594H45.3904L43.2617 22.8474H44.6994L45.0703 22.1108ZM46.7925 21.2166H45.5174L46.0203 20.2564L46.1727 19.8907L46.315 20.2514L46.7925 21.2166Z" fill="#BBBDC3"/>
<path d="M53.3616 19.8603V18.8594H48.6016V19.8603H50.2831V22.8474H51.6752V19.8603H53.3616Z" fill="#BBBDC3"/>
<path d="M57.9896 22.8474V21.8568H55.1303V21.3385H57.8728V20.3682H55.1303V19.8551H57.9544V18.8594H53.7891V22.8474H57.9896Z" fill="#BBBDC3"/>
<path d="M31.5522 24.9678H30.2363C30.2363 24.9678 29.3777 27.4774 29.3777 27.5384C29.3777 27.4774 28.575 24.9678 28.575 24.9678H27.1475C27.1475 24.9678 26.3499 27.4774 26.3499 27.5384C26.3499 27.4774 25.4862 24.9678 25.4862 24.9678H24.0078L25.5015 28.9558H26.99C26.99 28.9558 27.7927 26.5732 27.7978 26.5071C27.8028 26.5732 28.6005 28.9558 28.6005 28.9558H30.094L31.5522 24.9678Z" fill="#BBBDC3"/>
<path d="M33.3521 28.9558V24.9678H31.9551V28.9558H33.3521Z" fill="#BBBDC3"/>
<path d="M38.7853 28.9558V24.9678H37.4847V27.1371L35.5694 24.9678H34.1367V28.9558H35.4475V26.7357L37.4238 28.9558H38.7853Z" fill="#BBBDC3"/>
<path d="M44.2285 28.9558V24.9678H42.928V27.1371L41.0127 24.9678H39.5801V28.9558H40.8908V26.7357L42.867 28.9558H44.2285Z" fill="#BBBDC3"/>
<path d="M49.2249 28.9558V27.9652H46.3647V27.4469H49.108V26.4766H46.3647V25.9635H49.1893V24.9678H45.0234V28.9558H49.2249Z" fill="#BBBDC3"/>
<path d="M54.594 26.1819C54.594 25.8213 54.5072 25.5621 54.3243 25.3742C54.0856 25.1202 53.6743 24.9678 53.044 24.9678H49.8691V28.9558H51.2256V27.5486H52.4601L53.4511 28.9558H54.9649L53.7611 27.3301C54.0298 27.2895 54.2488 27.1269 54.3904 26.9339C54.5175 26.7561 54.594 26.4918 54.594 26.1819ZM53.2734 26.3089C53.2734 26.3751 53.263 26.4563 53.2269 26.5173C53.1762 26.6188 53.044 26.6595 52.8259 26.6595H51.2307V25.933H52.8001C53.014 25.933 53.1566 25.9686 53.2269 26.1007C53.263 26.1515 53.2734 26.2328 53.2734 26.3089Z" fill="#BBBDC3"/>
<path d="M26.5668 32.8794C26.5668 32.8142 26.5668 30.9307 26.5668 30.9307H26.0911C26.0911 30.9307 26.0911 32.8065 26.0911 32.8487C26.0911 33.3013 25.6653 33.5584 25.0515 33.5584C24.3265 33.5584 23.9697 33.2822 23.9697 32.8449C23.9697 32.8026 23.9697 30.9307 23.9697 30.9307H23.4902C23.4902 30.9307 23.4902 32.7567 23.4902 32.8295C23.4902 33.6275 24.1117 33.9803 25.0324 33.9803C25.9837 33.9803 26.5668 33.6044 26.5668 32.8794Z" fill="#BBBDC3"/>
<path d="M29.9806 33.942V33.5009H27.9052V30.9307H27.4258V33.942H29.9806Z" fill="#BBBDC3"/>
<path d="M32.7053 31.368V30.9307H29.5059V31.368H30.8639V33.942H31.3473V31.368H32.7053Z" fill="#BBBDC3"/>
<path d="M36.1142 31.7822C36.1142 31.5674 36.0681 31.4101 35.9876 31.2835C35.8456 31.0725 35.5732 30.9307 35.1206 30.9307H33.1719V33.942H33.6437V32.6722H35.017L35.8571 33.942H36.4095L35.5004 32.5916C35.7305 32.5649 35.9108 32.4344 36.0067 32.2656C36.0759 32.1505 36.1142 31.9818 36.1142 31.7822ZM35.6384 31.8206C35.6384 31.905 35.6193 32.0086 35.5848 32.0777C35.5234 32.1889 35.3815 32.2464 35.1513 32.2502H33.6475C33.6475 32.2426 33.6475 31.3603 33.6475 31.3603H35.0631C35.3508 31.3603 35.5042 31.4293 35.5848 31.5598C35.6193 31.6211 35.6384 31.7247 35.6384 31.8206Z" fill="#BBBDC3"/>
<path d="M37.4798 33.1978H39.3557L39.7393 33.942H40.2533L38.7265 30.9307H38.1626L36.5859 33.942H37.0884L37.4798 33.1978ZM39.1561 32.772H37.687L38.2968 31.6173L38.4312 31.3373L38.5654 31.6173L39.1561 32.772Z" fill="#BBBDC3"/>
<path d="M45.1188 33.6543C45.2377 33.5162 45.2915 33.3206 45.2915 33.1096C45.2915 32.9101 45.2339 32.7106 45.115 32.5878C44.996 32.4728 44.8042 32.3769 44.5932 32.3577C44.716 32.3385 44.8119 32.2618 44.8771 32.1812C44.9807 32.0623 45.042 31.8705 45.042 31.6787C45.042 31.4753 44.9807 31.2912 44.8502 31.1646C44.7083 31.0227 44.4666 30.9307 44.1291 30.9307H42.1035V33.942H44.2787C44.6853 33.942 44.9692 33.8385 45.1188 33.6543ZM44.5471 31.7746C44.5471 31.9088 44.505 32.0278 44.4321 32.0968C44.3592 32.1774 44.2364 32.2119 44.106 32.2119H42.5715V31.3449H44.0178C44.1943 31.3449 44.3285 31.3794 44.4206 31.4639C44.5012 31.5405 44.5471 31.6518 44.5471 31.7746ZM44.7006 33.3627C44.6047 33.4702 44.4398 33.5239 44.1981 33.5239H42.5715V32.6301H44.2097C44.4321 32.6301 44.5856 32.6761 44.6777 32.7643C44.762 32.8449 44.7966 32.9485 44.7966 33.0674C44.7966 33.1901 44.7697 33.2937 44.7006 33.3627Z" fill="#BBBDC3"/>
<path d="M48.7749 33.942V33.5009H46.4349V32.6416H48.6828V32.2042H46.4349V31.368H48.748V30.9307H45.9668V33.942H48.7749Z" fill="#BBBDC3"/>
<path d="M52.5211 33.0523C52.5211 32.5613 52.1956 32.3081 51.3937 32.216C51.2591 32.1969 50.9675 32.1662 50.8102 32.147C50.066 32.0587 49.8397 31.959 49.8397 31.702C49.8397 31.4527 50.089 31.3107 50.8409 31.3107C51.4237 31.3107 51.7234 31.4258 51.8732 31.6329C51.9156 31.6905 51.9383 31.7596 51.9497 31.8132H52.4632C52.4488 31.725 52.4136 31.6022 52.3599 31.5025C52.1532 31.1458 51.7275 30.8887 50.8409 30.8887C49.7821 30.8849 49.3448 31.2686 49.3448 31.7442C49.3448 32.2198 49.6862 32.4615 50.5724 32.5652C50.7259 32.5843 50.9982 32.615 51.1325 32.6304C51.8195 32.7147 52.0344 32.8183 52.0344 33.106C52.0344 33.3708 51.7885 33.5626 51.002 33.5626C50.3576 33.5626 50.0123 33.4474 49.8742 33.225C49.832 33.1636 49.8052 33.0677 49.8014 33.0025H49.2949C49.3065 33.1405 49.3448 33.2902 49.4139 33.4091C49.6134 33.7736 50.0814 33.9846 50.9867 33.9846C52.0685 33.9846 52.5211 33.6354 52.5211 33.0523Z" fill="#BBBDC3"/>
<path d="M55.9609 31.368V30.9307H52.7617V31.368H54.1195V33.942H54.6031V31.368H55.9609Z" fill="#BBBDC3"/>
<path d="M22.1328 36.5596C22.1328 36.2527 22.0715 36.0455 21.9678 35.8882C21.8221 35.6618 21.5382 35.543 21.0433 35.543H19.1406V38.5543H19.6163V37.5722C19.6163 37.5722 20.959 37.5722 21.0242 37.5722C21.4884 37.5684 21.8067 37.461 21.9756 37.2155C22.0829 37.0659 22.1328 36.8511 22.1328 36.5596ZM21.6495 36.5596C21.6495 36.7129 21.6341 36.828 21.5843 36.9048C21.496 37.0467 21.3157 37.1349 20.9436 37.1349C20.9091 37.1349 19.6163 37.1349 19.6163 37.1349V35.9726H20.959C21.308 35.9726 21.4884 36.0531 21.5843 36.2104C21.6302 36.2794 21.6495 36.4061 21.6495 36.5596Z" fill="#BBBDC3"/>
<path d="M25.605 38.5543V38.1132H23.2649V37.2539H25.5129V36.8166H23.2649V35.9803H25.5781V35.543H22.7969V38.5543H25.605Z" fill="#BBBDC3"/>
<path d="M29.2646 36.3945C29.2646 36.1797 29.2186 36.0224 29.138 35.8959C28.996 35.6848 28.7237 35.543 28.271 35.543H26.3223V38.5543H26.7941V37.2846H28.1675L29.0076 38.5543H29.56L28.6508 37.204C28.881 37.1772 29.0613 37.0467 29.1572 36.8779C29.2262 36.7628 29.2646 36.5941 29.2646 36.3945ZM28.7889 36.4329C28.7889 36.5173 28.7697 36.6209 28.7352 36.69C28.6738 36.8012 28.5318 36.8587 28.3017 36.8625H26.7979C26.7979 36.8549 26.7979 35.9726 26.7979 35.9726H28.2135C28.5012 35.9726 28.6546 36.0417 28.7352 36.1721C28.7697 36.2334 28.7889 36.337 28.7889 36.4329Z" fill="#BBBDC3"/>
<path d="M32.8222 35.9803V35.543H30.1445V38.5543H30.6202V37.2731H32.7225V36.8242H30.6202V35.9803H32.8222Z" fill="#BBBDC3"/>
<path d="M35.0047 35.4893C34.364 35.4893 33.9229 35.6465 33.6083 35.9765C33.3436 36.2335 33.2285 36.5903 33.2285 37.0391C33.2285 37.5301 33.3781 37.8984 33.6544 38.1477C33.9498 38.4431 34.4024 38.5965 35.0047 38.5965C35.6262 38.5965 36.1095 38.4431 36.3972 38.1323C36.6466 37.8792 36.777 37.5186 36.777 37.0352C36.777 36.5672 36.6657 36.2104 36.4011 35.9573C36.098 35.6427 35.6453 35.4893 35.0047 35.4893ZM35.0047 38.1669C34.5827 38.1669 34.2834 38.0749 34.0571 37.8907C33.827 37.7028 33.7157 37.415 33.7157 37.0467C33.7157 36.7015 33.8116 36.4138 33.9958 36.2411C34.2068 36.0417 34.529 35.9227 35.0009 35.9227C35.488 35.9227 35.7911 36.0379 36.0174 36.2373C36.2093 36.4061 36.2936 36.7053 36.2936 37.0429C36.2936 37.3843 36.2054 37.6759 36.0097 37.8523C35.7834 38.0633 35.4651 38.1669 35.0047 38.1669Z" fill="#BBBDC3"/>
<path d="M40.3759 36.3945C40.3759 36.1797 40.3298 36.0224 40.2493 35.8959C40.1073 35.6848 39.835 35.543 39.3824 35.543H37.4336V38.5543H37.9054V37.2846H39.2787L40.1189 38.5543H40.6712L39.7621 37.204C39.9922 37.1772 40.1725 37.0467 40.2684 36.8779C40.3376 36.7628 40.3759 36.5941 40.3759 36.3945ZM39.9002 36.4329C39.9002 36.5173 39.881 36.6209 39.8465 36.69C39.7851 36.8012 39.6432 36.8587 39.413 36.8625H37.9092C37.9092 36.8549 37.9092 35.9726 37.9092 35.9726H39.3248C39.6125 35.9726 39.7659 36.0417 39.8465 36.1721C39.881 36.2334 39.9002 36.337 39.9002 36.4329Z" fill="#BBBDC3"/>
<path d="M44.9654 38.5543V35.543H44.344L43.1049 38.0211L41.8888 35.543H41.2559V38.5543H41.7124V36.2373L42.8478 38.5543H43.3465L44.5089 36.2373V38.5543H44.9654Z" fill="#BBBDC3"/>
<path d="M46.3118 37.8101H48.1877L48.5713 38.5543H49.0854L47.5585 35.543H46.9946L45.418 38.5543H45.9205L46.3118 37.8101ZM47.9882 37.3843H46.519L47.1289 36.2296L47.2632 35.9496L47.3974 36.2296L47.9882 37.3843Z" fill="#BBBDC3"/>
<path d="M52.5408 38.5543V35.543H52.0841V37.883L50.0898 35.543H49.5488V38.5543H50.013V36.1989L52.0231 38.5543H52.5408Z" fill="#BBBDC3"/>
<path d="M56.6791 37.4304H56.18C56.1645 37.5684 56.1108 37.7066 56.0147 37.8101C55.808 38.0518 55.4784 38.1554 54.9721 38.1554C54.5463 38.1554 54.0896 38.0364 53.8705 37.7257C53.7558 37.58 53.6825 37.3652 53.6825 37.0429C53.6825 36.7552 53.7331 36.5404 53.8437 36.3946C54.0276 36.0992 54.4151 35.9458 54.9607 35.9458C55.4898 35.9458 55.8235 36.0915 56.0002 36.2948C56.0994 36.4022 56.1573 36.5289 56.1759 36.6784H56.675C56.6595 36.5097 56.6058 36.3101 56.4911 36.1414C56.2451 35.7769 55.7925 35.4893 54.9638 35.4893C54.1743 35.4893 53.7021 35.7424 53.4407 36.1222C53.2722 36.3408 53.1875 36.6477 53.1875 37.0391C53.1875 37.4764 53.2919 37.7987 53.4717 38.025C53.7331 38.3818 54.2353 38.5965 54.9948 38.5965C55.7739 38.5965 56.2379 38.3625 56.4683 37.9904C56.5985 37.8101 56.6636 37.5953 56.6791 37.4304Z" fill="#BBBDC3"/>
<path d="M60.1133 38.5543V38.1132H57.7728V37.2539H60.0213V36.8166H57.7728V35.9803H60.0864V35.543H57.3047V38.5543H60.1133Z" fill="#BBBDC3"/>
<path d="M25.0299 41.5459L25.6036 43.3117H27.4602L25.9583 44.403L26.532 46.1686L25.0299 45.0774L23.5279 46.1686L24.1017 44.403L22.5996 43.3117H24.4562L25.0299 41.5459Z" fill="#BBBDC3"/>
<path d="M31.6537 41.5459L32.2391 43.3116H34.1336L32.601 44.4029L33.1864 46.1686L31.6537 45.0773L30.1211 46.1686L30.7065 44.4029L29.1738 43.3116H31.0683L31.6537 41.5459Z" fill="#BBBDC3"/>
<path d="M38.224 41.5459L38.8095 43.3116H40.7039L39.1713 44.4029L39.7568 46.1686L38.224 45.0773L36.6914 46.1686L37.2768 44.4029L35.7441 43.3116H37.6387L38.224 41.5459Z" fill="#BBBDC3"/>
<path d="M44.7943 41.5459L45.3797 43.3116H47.2742L45.7416 44.4029L46.327 46.1686L44.7943 45.0773L43.2617 46.1686L43.8471 44.4029L42.3145 43.3116H44.209L44.7943 41.5459Z" fill="#BBBDC3"/>
<path d="M51.4187 41.5459L51.9922 43.3116H53.8491L52.3466 44.4029L52.9201 46.1686L51.4187 45.0773L49.9165 46.1686L50.4903 44.4029L48.9883 43.3116H50.8449L51.4187 41.5459Z" fill="#BBBDC3"/>
<path d="M28.2476 11.7559L28.6814 13.0909H30.0852L28.9496 13.916L29.3834 15.251L28.2476 14.426L27.112 15.251L27.5458 13.916L26.4102 13.0909H27.8139L28.2476 11.7559Z" fill="#BBBDC3"/>
<path d="M33.2559 11.7539L33.6986 13.089H35.1309L33.9721 13.9141L34.4147 15.2491L33.2559 14.4239L32.0971 15.2491L32.5397 13.9141L31.3809 13.089H32.8133L33.2559 11.7539Z" fill="#BBBDC3"/>
<path d="M38.2227 11.7539L38.6653 13.089H40.0977L38.9389 13.9141L39.3815 15.2491L38.2227 14.4239L37.0639 15.2491L37.5065 13.9141L36.3477 13.089H37.7801L38.2227 11.7539Z" fill="#BBBDC3"/>
<path d="M43.1915 11.7539L43.6341 13.089H45.0665L43.9077 13.9141L44.3503 15.2491L43.1915 14.4239L42.0326 15.2491L42.4753 13.9141L41.3164 13.089H42.7488L43.1915 11.7539Z" fill="#BBBDC3"/>
<path d="M48.1988 11.7539L48.6326 13.089H50.0364L48.9007 13.9141L49.3345 15.2491L48.1988 14.4239L47.0632 15.2491L47.497 13.9141L46.3613 13.089H47.765L48.1988 11.7539Z" fill="#BBBDC3"/>
<path fill-rule="evenodd" clip-rule="evenodd" d="M8.25327 35.7852C6.33892 23.808 11.9259 11.9579 23.1108 6.86914L23.2141 7.09606C12.1417 12.1336 6.60087 23.8677 8.49941 35.7458C10.5999 48.8871 21.2012 56.7683 34.1835 57.1482L34.1762 57.3975C21.0927 57.0145 10.3753 49.062 8.25327 35.7852Z" fill="#BBBDC3"/>
<path d="M20.685 9.92503C18.6181 9.97215 16.1989 11.1377 14.7715 12.8308C15.9162 13.8938 17.758 13.5008 19.0835 13.2834C20.9752 12.9732 22.9869 12.3722 24.772 11.5214C24.038 9.95903 22.0608 9.89372 20.685 9.92503Z" fill="#BBBDC3"/>
<path d="M19.0602 7.37552C17.8359 9.28264 16.3769 11.1781 14.789 12.8472C13.4606 11.6002 14.2624 9.52495 14.8046 8.23442C15.7868 5.89599 18.1417 3.87944 20.6036 2.84766C21.2793 4.38495 19.8116 6.20496 19.0602 7.37552Z" fill="#BBBDC3"/>
<path d="M14.7051 15.2733C12.7697 15.9613 11.1065 17.8979 10.2715 19.8423C11.6632 20.4893 13.2453 19.5549 14.4028 18.9327C15.992 18.0784 17.6134 16.8995 18.8892 15.5353C17.7365 14.3191 15.9862 14.818 14.7051 15.2733Z" fill="#BBBDC3"/>
<path d="M12.3585 13.3675C11.9348 15.5426 11.2245 17.7972 10.2916 19.852C8.66329 19.0841 8.72529 16.8845 8.79504 15.4848C8.91408 13.0956 10.2507 10.3711 12.1116 8.63965C13.2509 9.86105 12.6284 11.9819 12.3585 13.3675Z" fill="#BBBDC3"/>
<path d="M10.9807 22.1781C9.368 23.4503 8.39047 25.8081 8.16406 27.9135C9.68968 28.0886 10.9091 26.7002 11.8165 25.7477C13.0518 24.4508 14.2213 22.8241 14.9639 21.1223C13.5096 20.3289 12.0312 21.3493 10.9807 22.1781Z" fill="#BBBDC3"/>
<path d="M8.18517 21.1035C8.47275 23.3001 8.47337 25.6764 8.18569 27.9159C6.41146 27.698 5.82297 25.5676 5.47536 24.2312C4.8752 21.9244 5.27758 18.9447 6.44669 16.7021C7.90772 17.5109 8.00145 19.6995 8.18517 21.1035Z" fill="#BBBDC3"/>
<path d="M9.71544 29.7146C8.43927 31.584 7.9905 34.5136 8.56441 36.8684C10.2508 36.4691 11.0868 34.5598 11.758 33.2114C12.6501 31.4193 13.4041 29.3286 13.674 27.2773C11.8449 26.8966 10.5561 28.4831 9.71544 29.7146Z" fill="#BBBDC3"/>
<path d="M6.36536 29.5254C7.35963 31.8274 8.13556 34.361 8.58961 36.8625C6.65552 37.278 5.26352 35.2471 4.45483 33.9004C3.01509 31.5033 2.59566 28.1802 3.12307 25.3125C4.89327 25.6675 5.75952 28.1232 6.36536 29.5254Z" fill="#BBBDC3"/>
<path d="M10.6068 37.8484C9.9216 40.1161 10.3979 43.1991 11.7852 45.331C13.3098 44.3384 13.5208 42.1537 13.7369 40.5873C14.0218 38.5202 14.1559 36.2304 13.802 34.0869C11.852 34.3358 11.0645 36.3334 10.6068 37.8484Z" fill="#BBBDC3"/>
<path d="M7.21831 38.819C8.92909 40.782 10.5072 43.0202 11.8087 45.3162C10.0435 46.4181 7.97223 44.9127 6.716 43.8473C4.48741 41.9574 3.04033 38.7453 2.69727 35.717C4.55189 35.4678 6.18632 37.6347 7.21831 38.819Z" fill="#BBBDC3"/>
<path d="M14.2029 45.5667C14.3499 48.2063 16.0685 50.9762 18.3567 52.5527C19.4617 51.0398 18.7691 48.7217 18.3921 47.1036C17.8846 44.9251 17.1823 42.6565 16.1385 40.6436C14.3184 41.6054 14.1061 43.8283 14.2029 45.5667Z" fill="#BBBDC3"/>
<path d="M11.1248 47.7959C13.6038 49.1735 16.0758 50.799 18.3741 52.5287C16.9977 54.3412 14.2466 53.6185 12.5412 53.0359C9.5358 52.0092 6.85647 49.3029 5.45703 46.2962C7.23137 45.3823 9.66032 46.9822 11.1248 47.7959Z" fill="#BBBDC3"/>
<path d="M21.2632 52.015C22.7511 54.7304 26.1418 56.5019 29.3348 56.9283C29.6785 54.9542 27.5425 52.9997 26.3785 51.721C24.7214 49.9006 22.9946 48.0115 21.0585 46.4375C19.608 48.1216 20.3749 50.3938 21.2632 52.015Z" fill="#BBBDC3"/>
<path d="M19.138 55.4568C22.5202 55.8084 25.9597 56.3147 29.34 56.8984C29.0173 59.3891 25.0647 59.7911 23.2703 59.9381C19.5911 60.2397 15.4983 58.7608 12.6484 56.2711C14.0639 54.6055 17.3364 55.2696 19.138 55.4568Z" fill="#BBBDC3"/>
<path d="M25.6539 4.77848C23.3831 5.42628 20.7252 6.65522 19.4121 8.9238C21.7955 8.66402 24.138 7.81596 26.4288 7.16982C28.9947 6.44597 31.6966 5.90461 34.1809 4.90548C31.4602 3.81696 28.2529 4.03696 25.6539 4.77848Z" fill="#BBBDC3"/>
<path fill-rule="evenodd" clip-rule="evenodd" d="M69.5823 35.7458C71.4806 23.8677 65.9398 12.1338 54.8677 7.09606L54.971 6.86914C66.1558 11.958 71.7431 23.808 69.8283 35.7852C67.7069 49.062 56.9891 57.0145 43.9057 57.3975L43.8984 57.1482C56.8806 56.7683 67.4816 48.8871 69.5823 35.7458Z" fill="#BBBDC3"/>
<path d="M57.3974 9.92503C59.464 9.97215 61.8831 11.1377 63.3111 12.8308C62.1662 13.8938 60.3238 13.5008 58.999 13.2834C57.107 12.9732 55.0951 12.3722 53.3105 11.5214C54.0442 9.95903 56.021 9.89372 57.3974 9.92503Z" fill="#BBBDC3"/>
<path d="M59.0217 7.37552C60.2462 9.28264 61.7053 11.1781 63.2925 12.8472C64.6213 11.6002 63.8195 9.52495 63.277 8.23442C62.2953 5.89599 59.9403 3.87944 57.4779 2.84766C56.8021 4.38495 58.2705 6.20496 59.0217 7.37552Z" fill="#BBBDC3"/>
<path d="M63.3793 15.2733C65.3147 15.9613 66.9773 17.8979 67.8123 19.8423C66.4204 20.4893 64.8383 19.5549 63.681 18.9327C62.0917 18.0784 60.4704 16.8995 59.1953 15.5353C60.3475 14.3191 62.0979 14.818 63.3793 15.2733Z" fill="#BBBDC3"/>
<path d="M65.7245 13.3675C66.1481 15.5426 66.858 17.7972 67.7911 19.852C69.4197 19.0841 69.3577 16.8845 69.2874 15.4848C69.1686 13.0956 67.8325 10.3711 65.9714 8.63965C64.8317 9.86105 65.4548 11.9819 65.7245 13.3675Z" fill="#BBBDC3"/>
<path d="M67.1016 22.1781C68.7146 23.4503 69.6922 25.8081 69.9185 27.9135C68.3933 28.0886 67.1739 26.7002 66.2667 25.7477C65.0308 24.4508 63.8611 22.8241 63.1191 21.1223C64.573 20.3289 66.0517 21.3493 67.1016 22.1781Z" fill="#BBBDC3"/>
<path d="M69.898 21.1035C69.6097 23.2999 69.6097 25.6764 69.897 27.9159C71.6712 27.698 72.2602 25.5676 72.6074 24.2312C73.2078 21.9244 72.8048 18.9447 71.6361 16.7021C70.1749 17.5109 70.0809 19.6995 69.898 21.1035Z" fill="#BBBDC3"/>
<path d="M68.3689 29.7146C69.645 31.584 70.0935 34.5136 69.52 36.8684C67.8336 36.4691 66.9976 34.5599 66.326 33.2114C65.4342 31.4193 64.6799 29.3286 64.4102 27.2773C66.2392 26.8966 67.5288 28.4831 68.3689 29.7146Z" fill="#BBBDC3"/>
<path d="M71.7179 29.5254C70.7238 31.8274 69.9478 34.361 69.4941 36.8625C71.4275 37.278 72.8194 35.2471 73.6285 33.9004C75.0679 31.5033 75.4875 28.1802 74.9605 25.3125C73.1904 25.6675 72.3234 28.1232 71.7179 29.5254Z" fill="#BBBDC3"/>
<path d="M67.4757 37.8484C68.1608 40.1161 67.6854 43.1991 66.2977 45.331C64.7735 44.3384 64.5617 42.1537 64.3457 40.5873C64.0615 38.5202 63.9272 36.2304 64.2806 34.0869C66.2305 34.3358 67.0179 36.3334 67.4757 37.8484Z" fill="#BBBDC3"/>
<path d="M70.8635 38.819C69.1533 40.7821 67.5754 43.0202 66.2734 45.3162C68.0384 46.4181 70.1102 44.9127 71.3667 43.8473C73.5946 41.9574 75.0423 38.7453 75.3854 35.717C73.5305 35.4678 71.8958 37.6347 70.8635 38.819Z" fill="#BBBDC3"/>
<path d="M63.8786 45.5667C63.7319 48.2063 62.0135 50.9762 59.7257 52.5527C58.62 51.0398 59.3134 48.7218 59.6895 47.1036C60.1969 44.9251 60.8995 42.6565 61.9432 40.6436C63.7639 41.6054 63.9758 43.8283 63.8786 45.5667Z" fill="#BBBDC3"/>
<path d="M66.9578 47.7959C64.4788 49.1735 62.0071 50.799 59.709 52.5287C61.0854 54.3412 63.8361 53.6185 65.5411 53.0359C68.5471 52.0092 71.2265 49.3029 72.6256 46.2962C70.8514 45.3823 68.422 46.9822 66.9578 47.7959Z" fill="#BBBDC3"/>
<path d="M56.8197 52.015C55.3317 54.7304 51.9413 56.5019 48.7479 56.9283C48.4042 54.9542 50.5401 52.9997 51.7047 51.721C53.3611 49.9006 55.0878 48.0115 57.0243 46.4375C58.4751 48.1216 57.7073 50.3938 56.8197 52.015Z" fill="#BBBDC3"/>
<path d="M58.9441 55.4568C55.562 55.8084 52.123 56.3147 48.7422 56.8984C49.065 59.3891 53.0179 59.7911 54.8118 59.9381C58.4915 60.2397 62.5845 58.7608 65.4334 56.2711C64.0188 54.6055 60.7462 55.2696 58.9441 55.4568Z" fill="#BBBDC3"/>
<path d="M52.4295 4.77848C54.6997 5.42628 57.3585 6.65522 58.6708 8.9238C56.288 8.66402 53.9454 7.81596 51.6545 7.16982C49.0885 6.44597 46.3867 5.90461 43.9023 4.90548C46.6232 3.81696 49.8304 4.03696 52.4295 4.77848Z" fill="#BBBDC3"/>
<path d="M40.5177 3.60403L39.3526 1.0332L38.2094 3.55619L35.5508 1.90782L37.2592 5.49793H41.5078L43.1546 1.90782L40.5177 3.60403Z" fill="#BBBDC3"/>
<path d="M41.48 6.05566H37.2246V6.68362H41.48V6.05566Z" fill="#BBBDC3"/>
<path d="M39.6564 54.6338L40.3422 56.7441H42.561L40.7659 58.0482L41.4516 60.1585L39.6564 58.8543L37.8613 60.1585L38.5471 58.0482L36.752 56.7441H38.9708L39.6564 54.6338Z" fill="#BBBDC3"/>
</svg>
