<svg width="148" height="62" viewBox="0 0 148 62" fill="none" xmlns="http://www.w3.org/2000/svg">
<path d="M73.9947 20.454C74.5992 20.4455 75.1132 20.3325 75.1048 19.7111V19.6179C75.1132 18.9993 74.5992 18.8863 73.9947 18.8779C73.3875 18.8863 72.8734 18.9993 72.8819 19.6179V19.7111C72.8734 20.3325 73.3875 20.4455 73.9947 20.454Z" fill="#BBBDC3"/>
<path d="M51.8963 19.2057C51.8963 19.0249 51.7523 18.8809 51.5715 18.8809H49.7666V19.5277H51.5715C51.6619 19.5277 51.7381 19.4966 51.8003 19.4345C51.8652 19.3695 51.8963 19.2933 51.8963 19.2057Z" fill="#BBBDC3"/>
<path d="M62.0547 18.873L62.5745 19.9944H61.5322L62.0547 18.873Z" fill="#BBBDC3"/>
<path d="M85.2442 18.873L85.7641 19.9944H84.7217L85.2442 18.873Z" fill="#BBBDC3"/>
<path d="M48.321 42.4857L47.5528 40.8281L46.7803 42.4857H48.321Z" fill="#BBBDC3"/>
<path d="M66.451 42.0095C66.451 42.5732 66.1295 43.0367 65.5617 43.0367H63.165V40.9824H65.5617C66.1295 40.9824 66.451 41.4417 66.451 42.0095Z" fill="#BBBDC3"/>
<path d="M72.5215 40.8281L73.2898 42.4857H71.749L72.5215 40.8281Z" fill="#BBBDC3"/>
<path d="M81.8585 40.8408C82.1257 40.8408 82.3386 41.0538 82.3386 41.321C82.3386 41.4504 82.2927 41.5632 82.1967 41.6592C82.1048 41.7511 81.9921 41.797 81.8585 41.797H79.1904V40.8408H81.8585Z" fill="#BBBDC3"/>
<path d="M90.6864 42.0095C90.6864 42.5732 90.3644 43.0367 89.7964 43.0367H87.3994V40.9824H89.7964C90.3644 40.9824 90.6864 41.4417 90.6864 42.0095Z" fill="#BBBDC3"/>
<path d="M38.1764 31.5474L35.3918 25.1182H30.6143V35.8335H34.095V30.0459L36.6066 35.8335H39.7189L42.2578 30.0459V35.8335H45.7249V25.1182H41.0975L38.1764 31.5474Z" fill="#BBBDC3"/>
<path d="M59.9302 35.8335V33.1717H52.2452V31.7794H59.6163V29.1723H52.2452V27.7936H59.8347V25.1182H48.6416V35.8335H59.9302Z" fill="#BBBDC3"/>
<path d="M62.8685 33.9358C63.9332 35.3145 65.8305 35.997 68.1101 35.997C69.822 35.997 71.0768 35.6493 71.951 35.0979C72.1014 35.003 72.2406 34.902 72.3689 34.7958L72.4645 35.8332H75.3992V29.4859H68.2739V31.7928H72.0823C72.0655 31.902 72.0073 32.0734 71.9236 32.2367C71.8714 32.3387 71.8092 32.4375 71.741 32.5162C71.3452 32.9803 70.2941 33.3898 68.9291 33.3898C67.5095 33.3898 66.5949 33.0213 66.1035 32.448C65.7759 32.0248 65.5848 31.4242 65.5848 30.5233C65.5848 29.5815 65.7759 28.9399 66.1445 28.5168C66.6768 27.9162 67.5777 27.6568 68.9018 27.6568C70.0894 27.6568 70.9084 27.9298 71.2906 28.2711C71.5363 28.4758 71.7274 28.7625 71.7683 28.9536H75.3037C75.2987 28.8276 75.2806 28.6736 75.2502 28.5097C75.1982 28.2296 75.1103 27.9201 74.9897 27.6705C74.1434 25.9505 72.1778 24.9268 68.8336 24.9268C65.9261 24.9268 63.9741 25.814 62.8958 27.1518C62.186 28.0663 61.8584 29.2129 61.8584 30.496C61.8584 31.9156 62.2406 33.1305 62.8685 33.9358Z" fill="#BBBDC3"/>
<path d="M66.0283 30.5232C66.0283 29.6325 66.2104 29.1174 66.4776 28.8097C66.8795 28.3574 67.6128 28.1006 68.9014 28.1006C70.0472 28.1006 70.7328 28.3684 70.9945 28.6021L71.0002 28.6071L71.006 28.612C71.096 28.687 71.1783 28.7794 71.2405 28.8695C71.302 28.9585 71.3266 29.0203 71.3327 29.0419H67.8296V32.2366H71.3955C71.2678 32.3809 70.9937 32.561 70.5582 32.7057C70.1247 32.8497 69.5684 32.9458 68.9287 32.9458C67.5799 32.9458 66.8213 32.5967 66.4474 32.1673C66.203 31.8469 66.0283 31.3555 66.0283 30.5232Z" fill="#BBBDC3"/>
<path d="M84.6723 29.0664L83.6553 31.008H85.6331L84.6723 29.0664Z" fill="#BBBDC3"/>
<path fill-rule="evenodd" clip-rule="evenodd" d="M87.5074 33.8542L88.4494 35.8335H92.3944L86.9884 25.1182H82.5798L76.8604 35.8335H80.7234L81.7197 33.8542H87.5074ZM82.921 31.4518L84.2723 28.872L84.6818 27.8892L85.064 28.8583L86.3475 31.4518H82.921Z" fill="#BBBDC3"/>
<path fill-rule="evenodd" clip-rule="evenodd" d="M115.991 54.3875H115.985C115.909 54.3875 115.833 54.3871 115.757 54.3863V54.3875H32.265C24.8974 54.3875 18.3255 50.9806 14.0388 45.6564H26.3402V44.0972H12.8862C10.8791 41.1332 9.53423 37.6843 9.06383 33.9628H26.3402V32.4037H8.91933C8.89183 31.9394 8.87793 31.4715 8.87793 31.0004C8.87793 27.9138 9.47583 24.967 10.5622 22.2692H26.3402V20.7101H11.2576C12.9104 17.3423 15.3491 14.4301 18.3348 12.2128H102.06C103.104 11.4376 104.215 10.7473 105.382 10.1521C105.067 10.3125 104.757 10.4797 104.451 10.6536H20.7255C24.1304 8.71838 28.0686 7.61328 32.2649 7.61328H115.757V7.61438C115.835 7.61361 115.913 7.61328 115.991 7.61328C128.907 7.61328 139.378 18.084 139.378 31.0004C139.378 43.9167 128.907 54.3875 115.991 54.3875ZM124.687 41.9692C125.734 38.8146 126.359 35.0677 126.359 31.0004C126.359 27.2087 125.815 23.6954 124.894 20.6808C124.781 20.3127 124.663 19.9521 124.54 19.5993C124.334 19.0117 124.113 18.4459 123.879 17.9037C123.563 17.1715 123.223 16.4823 122.862 15.8407C121.156 12.8134 119.21 11.183 117.394 10.6341V17.9037H122.17C122.574 18.7658 122.943 19.7045 123.269 20.7101H117.394V29.5971H124.774C124.791 30.0596 124.8 30.5275 124.8 31.0004C124.8 31.4733 124.791 31.9412 124.774 32.4036H117.394V41.2907H123.268C122.943 42.2963 122.574 43.235 122.17 44.0971H117.394V51.3668C119.21 50.818 121.156 49.1875 122.862 46.1601C123.223 45.5185 123.564 44.8293 123.879 44.0971C124.17 43.4231 124.44 42.7126 124.687 41.9692ZM127.825 20.7101C128.574 23.4191 129.037 26.4229 129.142 29.5971H136.524C136.307 26.3751 135.348 23.3564 133.818 20.7101H127.825ZM131.867 17.9037H126.908C126.008 15.5453 124.872 13.4939 123.56 11.8565C126.82 13.1464 129.671 15.2445 131.867 17.9037ZM114.588 10.6338V17.9037H108.102C108.418 17.1715 108.758 16.4823 109.12 15.8407C110.825 12.8129 112.772 11.1823 114.588 10.6338ZM108.421 11.8564C107.109 13.4938 105.974 15.5452 105.074 17.9037H100.114C102.31 15.2444 105.162 13.1462 108.421 11.8564ZM104.156 20.7101H95.176V22.2692H97.349C96.2929 24.5193 95.6325 26.9917 95.4571 29.5971H102.839C102.945 26.4229 103.407 23.4191 104.156 20.7101ZM114.588 20.7101H107.079C106.277 23.3423 105.764 26.3533 105.648 29.5971H114.588V20.7101ZM129.142 32.4036C129.037 35.5778 128.574 38.5816 127.825 41.2907H133.818C135.348 38.6444 136.307 35.6256 136.524 32.4036H129.142ZM107.079 41.2907C106.277 38.6585 105.764 35.6474 105.648 32.4036H114.588V41.2907H107.079ZM104.156 41.2907C103.407 38.5816 102.945 35.5778 102.839 32.4036H95.4571C95.6741 35.6256 96.6327 38.6444 98.1634 41.2907H104.156ZM126.908 44.0971C126.008 46.4555 124.872 48.5068 123.561 50.1442C126.82 48.8543 129.671 46.7562 131.867 44.0971H126.908ZM108.102 44.0971H114.588V51.3671C112.772 50.8186 110.825 49.188 109.12 46.1601C108.758 45.5185 108.418 44.8293 108.102 44.0971ZM105.074 44.0971L95.176 44.0972V45.6563H101.542C103.494 47.5809 105.828 49.1184 108.421 50.1444C107.109 48.507 105.974 46.4556 105.074 44.0971ZM73.9949 17.6754C72.5657 17.6782 71.3963 18.0906 71.402 19.5283V19.8051C71.3963 21.24 72.5657 21.6552 73.9949 21.658C75.4213 21.6552 76.5907 21.24 76.585 19.8051V19.5283C76.585 18.0934 75.4241 17.6754 73.9949 17.6754ZM29.5929 17.7686V21.5648H31.073V17.7686H29.5929ZM35.5612 19.7797L33.8947 17.7686H31.8582V21.5648H33.3383V19.2459L35.3776 21.5648H37.0441V17.7686H35.5612V19.7797ZM40.7979 18.9775V21.5705H39.3179V18.9775H37.5582V17.7743H42.5576V18.9775H40.7979ZM43.0548 21.5705H47.4978V20.596H44.5348V20.1102H47.4978V19.2317H44.5348V18.7459H47.4978V17.7743H43.0548V21.5705ZM48.2858 21.5676V17.7714H51.9436C52.726 17.763 53.3898 18.4211 53.3785 19.2063C53.3785 19.4916 53.3022 19.7514 53.1497 19.9831C53 20.2118 52.7995 20.387 52.5509 20.5028L53.3785 21.5676H51.8024L51.0878 20.6412H49.7659V21.5676H48.2858ZM57.5419 19.7797L55.8754 17.7686H53.8389V21.5648H55.319V19.2459L57.3583 21.5648H59.0248V17.7686H57.5419V19.7797ZM60.8043 21.5705H59.1378L61.1743 17.7743H62.934L64.9705 21.5705H63.304L63.0046 20.9208H61.1037L60.8043 21.5705ZM67.2301 21.5705V18.9775H68.9898V17.7743H63.9904V18.9775H65.7501V21.5705H67.2301ZM69.4869 21.5648V17.7686H70.967V21.5648H69.4869ZM79.065 17.7686L80.7315 19.7797V17.7686H82.2144V21.5648H80.5479L78.5086 19.2459V21.5648H77.0285V17.7686H79.065ZM82.3274 21.5705H83.9938L84.2933 20.9208H86.194L86.494 21.5705H88.16L86.124 17.7743H84.3639L82.3274 21.5705ZM88.276 21.5648V17.7686H89.756V20.3615H92.719V21.5648H88.276ZM33.4279 40.4984C32.7473 40.4984 31.9122 40.5987 31.9122 41.0454C31.9122 41.2918 32.5928 41.3252 33.4738 41.3669L33.4835 41.3674C35.0487 41.4467 37.24 41.5577 37.2359 42.9619C37.2359 44.5653 35.3987 44.9453 33.4279 44.9453C31.4613 44.9411 29.8287 44.7031 29.6199 42.9619H31.9122C32.1627 43.3962 32.7431 43.5089 33.4279 43.5089C34.1085 43.5089 34.9436 43.3962 34.9436 42.9619C34.9436 42.7156 34.263 42.678 33.382 42.6363L33.3722 42.6358C31.807 42.5565 29.6157 42.4455 29.6199 41.0454C29.6199 39.4421 31.4571 39.0579 33.4279 39.0579C35.3945 39.0704 37.0271 39.2917 37.2359 41.0454H34.9436C34.693 40.6028 34.1127 40.4984 33.4279 40.4984ZM42.0919 40.9828V44.8158H39.904V40.9828H37.3027V39.2041H44.6932V40.9828H42.0919ZM43.2401 44.8158H45.7036L46.1462 43.8555H48.9563L49.3989 44.8158H51.8624L48.8519 39.2041H46.2506L43.2401 44.8158ZM55.0441 39.1957L57.5076 42.1686V39.1957H59.6997V44.8075H57.2362L54.2215 41.3795V44.8075H52.0336V39.1957H55.0441ZM60.9773 39.2041V44.8158H65.9712C67.5119 44.8367 68.656 43.534 68.6434 42.0099C68.656 40.4776 67.5119 39.1832 65.9712 39.2041H60.9773ZM70.6727 44.8158H68.2092L71.2197 39.2041H73.821L76.8314 44.8158H74.3679L73.9253 43.8555H71.1153L70.6727 44.8158ZM77.0026 39.1999V44.8117H79.1906V43.4421H81.1447L82.201 44.8117H84.5309L83.3075 43.2375C83.675 43.0663 83.9714 42.8075 84.1927 42.4692C84.4182 42.1269 84.5309 41.7427 84.5309 41.321C84.5476 40.1602 83.5664 39.1874 82.4098 39.1999H77.0026ZM85.2115 44.8158V39.2041H90.205C91.746 39.1832 92.89 40.4776 92.878 42.0099C92.89 43.534 91.746 44.8367 90.205 44.8158H85.2115ZM46.1694 36.2776H41.8145V32.163L40.0095 36.2776H36.316L34.5395 32.1841V36.2776H30.171V24.6745H35.6839L38.1867 30.4531L40.8122 24.6745H46.1694V36.2776ZM60.3756 36.2776H48.1992V24.6745H60.2801V28.2377H52.6906V28.7286H60.0617V32.2235H52.6906V32.728H60.3756V36.2776ZM75.8426 36.2776H72.059L71.9955 35.5887C71.047 36.1274 69.763 36.4414 68.1095 36.4414C65.7573 36.4414 63.6989 35.7379 62.5172 34.2086C61.8142 33.3065 61.4139 31.9878 61.4139 30.4965C61.4139 29.1378 61.7615 27.8889 62.5445 26.8801L62.547 26.8768L62.5496 26.8737C63.739 25.3981 65.8408 24.4834 68.833 24.4834C72.2529 24.4834 74.4326 25.5344 75.3874 27.475L75.3882 27.4765L75.3889 27.478C75.6109 27.9378 75.731 28.5453 75.7466 28.9363L75.7509 29.0425H75.8426V36.2776ZM81.9938 34.2983L80.9974 36.2776H76.1208L82.314 24.6745H87.263L93.116 36.2776H88.169L87.228 34.2983H81.9938ZM29.5365 50.5676H93.071V49.0084H29.5365V50.5676Z" fill="#BBBDC3"/>
<path fill-rule="evenodd" clip-rule="evenodd" d="M32.2646 2H115.991C132.007 2 144.991 14.9837 144.991 31C144.991 47.0163 132.007 60 115.991 60H32.2646C16.2483 60 3.26465 47.0163 3.26465 31C3.26465 14.9837 16.2483 2 32.2646 2ZM32.2646 4.8065C17.7983 4.8065 6.07115 16.5337 6.07115 31C6.07115 45.4663 17.7983 57.1936 32.2646 57.1936H115.991C130.457 57.1936 142.184 45.4663 142.184 31C142.184 16.5337 130.457 4.8065 115.991 4.8065H32.2646Z" fill="#BBBDC3"/>
</svg>
