<svg width="122" height="62" viewBox="0 0 122 62" fill="none" xmlns="http://www.w3.org/2000/svg">
<path d="M3.57422 35.8828H7.01816V52.7695H3.57422V35.8828Z" fill="#BBBDC3"/>
<path d="M9.0159 46.9835C9.01363 45.7706 9.37122 44.5842 10.0434 43.5746C10.7156 42.565 11.6723 41.7774 12.7922 41.3117C13.9121 40.846 15.1451 40.723 16.335 40.9582C17.5249 41.1934 18.6183 41.7764 19.4767 42.6333C20.3352 43.4901 20.9202 44.5824 21.1576 45.7718C21.3951 46.9613 21.2744 48.1944 20.8108 49.3153C20.3471 50.4361 19.5614 51.3941 18.553 52.0682C17.5447 52.7425 16.359 53.1022 15.1462 53.1022C14.3394 53.1114 13.5391 52.9596 12.792 52.6554C12.0448 52.3514 11.3659 51.9012 10.795 51.3313C10.224 50.7615 9.77258 50.0834 9.46709 49.3367C9.1616 48.5901 9.00821 47.7901 9.0159 46.9835ZM17.8094 46.9835C17.7959 46.4599 17.6282 45.9519 17.3275 45.5231C17.0267 45.0942 16.6062 44.7637 16.1185 44.5726C15.6307 44.3814 15.0975 44.3385 14.5856 44.4489C14.0736 44.5593 13.6055 44.8182 13.2398 45.1933C12.8743 45.5683 12.6274 46.0429 12.53 46.5576C12.4327 47.0722 12.4894 47.6042 12.6928 48.0869C12.8963 48.5695 13.2375 48.9815 13.6738 49.2712C14.1103 49.5609 14.6223 49.7155 15.1462 49.7156C15.5044 49.7257 15.861 49.6614 16.1932 49.5267C16.5255 49.392 16.8262 49.19 17.0765 48.9332C17.3267 48.6765 17.5211 48.3707 17.6472 48.0352C17.7734 47.6995 17.8286 47.3415 17.8094 46.9835Z" fill="#BBBDC3"/>
<path d="M35.1217 41.1978V52.1954C35.1217 56.087 32.0795 57.7287 29.003 57.7287C27.9212 57.8092 26.838 57.5904 25.8721 57.0963C24.9063 56.6022 24.095 55.8519 23.5272 54.9276L26.489 53.2172C26.724 53.6908 27.0958 54.0831 27.5563 54.343C28.0168 54.6029 28.5448 54.7187 29.0719 54.675C29.4186 54.7329 29.7741 54.7103 30.1109 54.6089C30.4476 54.5076 30.7565 54.3304 31.0139 54.0908C31.2711 53.8511 31.47 53.5556 31.5951 53.227C31.7202 52.8984 31.7681 52.5455 31.7351 52.1954V51.1278C31.3303 51.626 30.8136 52.0217 30.2273 52.2829C29.641 52.5442 29.0013 52.6637 28.3601 52.6317C26.8013 52.6317 25.3063 52.0124 24.204 50.9102C23.1017 49.8079 22.4824 48.3128 22.4824 46.754C22.4824 45.1951 23.1017 43.7002 24.204 42.5979C25.3063 41.4956 26.8013 40.8764 28.3601 40.8764C29.0009 40.8471 29.6397 40.9678 30.2256 41.2288C30.8116 41.4899 31.3285 41.8842 31.7351 42.3802V41.2322L35.1217 41.1978ZM31.7351 46.754C31.7581 46.1957 31.6134 45.6433 31.32 45.1677C31.0264 44.6923 30.5974 44.3154 30.088 44.0858C29.5786 43.856 29.0121 43.7839 28.4614 43.8788C27.9107 43.9735 27.401 44.2308 26.9977 44.6175C26.5944 45.0044 26.316 45.5029 26.1983 46.0491C26.0805 46.5953 26.1289 47.1644 26.3371 47.6829C26.5454 48.2015 26.9039 48.6458 27.3667 48.959C27.8295 49.2723 28.3753 49.4398 28.9341 49.4403C29.2989 49.466 29.6649 49.4152 30.0087 49.2909C30.3527 49.1665 30.6667 48.9716 30.9306 48.7185C31.1944 48.4654 31.4024 48.1598 31.541 47.8215C31.6796 47.4831 31.7457 47.1195 31.7351 46.754Z" fill="#BBBDC3"/>
<path d="M37.1077 46.9835C37.1054 45.7706 37.463 44.5842 38.1352 43.5746C38.8075 42.565 39.7641 41.7774 40.884 41.3117C42.0039 40.846 43.2368 40.723 44.4267 40.9582C45.6167 41.1934 46.71 41.7764 47.5686 42.6333C48.427 43.4901 49.0119 44.5824 49.2495 45.7718C49.4869 46.9613 49.3662 48.1944 48.9025 49.3153C48.4389 50.4361 47.6532 51.3941 46.6449 52.0682C45.6365 52.7425 44.4508 53.1022 43.2379 53.1022C42.4313 53.1114 41.6309 52.9596 40.8837 52.6554C40.1366 52.3514 39.4576 51.9012 38.8867 51.3313C38.3159 50.7615 37.8643 50.0834 37.5588 49.3367C37.2533 48.5901 37.0999 47.7901 37.1077 46.9835ZM45.9012 46.9835C45.8876 46.4599 45.72 45.9519 45.4192 45.5231C45.1185 45.0942 44.698 44.7637 44.2102 44.5726C43.7226 44.3814 43.1894 44.3385 42.6774 44.4489C42.1653 44.5593 41.6973 44.8182 41.3316 45.1933C40.966 45.5683 40.7191 46.0429 40.6218 46.5576C40.5245 47.0722 40.5812 47.6042 40.7845 48.0869C40.988 48.5695 41.3293 48.9815 41.7656 49.2712C42.202 49.5609 42.7141 49.7155 43.2379 49.7156C43.5944 49.7224 43.9484 49.6558 44.2779 49.5197C44.6074 49.3835 44.9054 49.181 45.1531 48.9246C45.4009 48.6683 45.5931 48.3635 45.7179 48.0296C45.8427 47.6956 45.8972 47.3395 45.8783 46.9835H45.9012Z" fill="#BBBDC3"/>
<path d="M50.9629 38.0981C50.9629 37.6849 51.0854 37.2809 51.315 36.9374C51.5446 36.5938 51.8709 36.326 52.2526 36.1678C52.6345 36.0097 53.0545 35.9683 53.4598 36.0489C53.8651 36.1295 54.2373 36.3285 54.5296 36.6207C54.8218 36.9129 55.0207 37.2852 55.1013 37.6905C55.182 38.0958 55.1406 38.5159 54.9826 38.8977C54.8244 39.2794 54.5566 39.6058 54.213 39.8353C53.8694 40.0648 53.4655 40.1874 53.0522 40.1874C52.499 40.1845 51.9694 39.9633 51.5781 39.5721C51.1869 39.181 50.9659 38.6514 50.9629 38.0981ZM51.3187 41.1976H54.7626V52.7692H51.3187V41.1976Z" fill="#BBBDC3"/>
<path d="M69.7787 46.9834C69.8204 47.7483 69.7105 48.5139 69.4552 49.2362C69.1998 49.9584 68.8043 50.623 68.291 51.1917C67.7777 51.7604 67.1571 52.222 66.4648 52.5499C65.7724 52.8777 65.0221 53.0655 64.257 53.1022C63.6146 53.1329 62.9732 53.0225 62.3783 52.7786C61.7832 52.5346 61.2489 52.163 60.8131 51.6901V57.43H57.3691V41.1976H60.8131V42.2882C61.2489 41.8153 61.7832 41.4437 62.3783 41.1997C62.9732 40.9558 63.6146 40.8454 64.257 40.8761C65.0212 40.9128 65.7705 41.1002 66.462 41.4273C67.1536 41.7546 67.7737 42.2151 68.2867 42.7826C68.7999 43.3501 69.1957 44.0132 69.4517 44.7341C69.7079 45.455 69.819 46.2194 69.7787 46.9834ZM66.3348 46.9834C66.3212 46.4446 66.1498 45.9216 65.8419 45.4792C65.5339 45.0369 65.1031 44.6945 64.6026 44.4946C64.1021 44.2946 63.5538 44.2459 63.026 44.3545C62.498 44.4629 62.0134 44.7239 61.6323 45.105C61.2512 45.4861 60.9903 45.9706 60.8817 46.4986C60.7733 47.0265 60.8221 47.5747 61.0219 48.0752C61.2219 48.5757 61.5642 49.0066 62.0066 49.3145C62.449 49.6224 62.972 49.7938 63.5108 49.8074C63.8868 49.8314 64.2635 49.7745 64.6158 49.6407C64.968 49.5069 65.2875 49.2993 65.5529 49.0318C65.8182 48.7642 66.0232 48.443 66.1542 48.0898C66.285 47.7365 66.3388 47.3593 66.3118 46.9834H66.3348Z" fill="#BBBDC3"/>
<path d="M80.5012 49.3028C80.5012 51.9661 78.2053 53.1026 75.6797 53.1026C74.6708 53.1919 73.6582 52.9772 72.7724 52.4862C71.8866 51.9952 71.1679 51.2503 70.709 50.3475L73.7167 48.637C73.8388 49.0546 74.1001 49.4178 74.4572 49.6663C74.8144 49.9148 75.2457 50.0337 75.6797 50.0031C76.5178 50.0031 76.931 49.739 76.931 49.2798C76.931 48.0056 71.1911 48.6829 71.1911 44.688C71.1911 42.1624 73.3264 40.8881 75.783 40.8881C76.6895 40.8606 77.587 41.0759 78.3823 41.512C79.1776 41.9479 79.8417 42.5887 80.3061 43.3677L77.2869 44.952C77.1536 44.6488 76.935 44.3908 76.6578 44.2095C76.3806 44.0281 76.0569 43.9311 75.7256 43.9302C75.1287 43.9302 74.7613 44.1599 74.7613 44.5846C74.8073 45.9047 80.5012 45.0208 80.5012 49.3028Z" fill="#BBBDC3"/>
<path d="M93.1738 41.1982V52.7699H89.7297V51.6908C89.3292 52.1703 88.8208 52.5481 88.2461 52.7936C87.6716 53.039 87.0469 53.1449 86.4235 53.1028C84.1276 53.1028 82.0957 51.4382 82.0957 48.3043V41.1982H85.5396V47.7992C85.5094 48.0805 85.5422 48.365 85.6355 48.632C85.7289 48.8991 85.8805 49.142 86.0795 49.3432C86.2784 49.5444 86.5197 49.6987 86.7857 49.795C87.0517 49.8914 87.3359 49.9271 87.6175 49.9C88.8803 49.9 89.7643 49.1652 89.7643 47.5237V41.1982H93.1738Z" fill="#BBBDC3"/>
<path d="M113.08 45.675V52.7695H109.636V45.9735C109.636 44.8256 109.073 44.0678 107.971 44.0678C106.869 44.0678 106.157 44.883 106.157 46.249V52.7695H102.714V45.9735C102.714 44.8256 102.162 44.0678 101.049 44.0678C99.9355 44.0678 99.2467 44.883 99.2467 46.249V52.7695H95.8027V41.198H99.2467V42.2656C99.6066 41.794 100.079 41.42 100.62 41.1774C101.161 40.9348 101.755 40.8313 102.346 40.8765C102.94 40.8476 103.532 40.9732 104.063 41.2406C104.594 41.5082 105.046 41.9088 105.377 42.4033C105.761 41.8863 106.27 41.475 106.856 41.2081C107.442 40.9411 108.087 40.8269 108.729 40.8765C111.346 40.8765 113.08 42.7821 113.08 45.675Z" fill="#BBBDC3"/>
<path d="M116.019 41.1293C117.439 41.1293 118.59 39.9779 118.59 38.5577C118.59 37.1376 117.439 35.9863 116.019 35.9863C114.599 35.9863 113.447 37.1376 113.447 38.5577C113.447 39.9779 114.599 41.1293 116.019 41.1293Z" fill="#BBBDC3"/>
<path d="M42.5482 27.1237C49.199 27.1237 54.5904 21.7321 54.5904 15.0813C54.5904 8.43058 49.199 3.03906 42.5482 3.03906C35.8974 3.03906 30.5059 8.43058 30.5059 15.0813C30.5059 21.7321 35.8974 27.1237 42.5482 27.1237Z" fill="#BBBDC3"/>
<path d="M69.4681 27.1237C76.1189 27.1237 81.5104 21.7321 81.5104 15.0813C81.5104 8.43058 76.1189 3.03906 69.4681 3.03906C62.8173 3.03906 57.4258 8.43058 57.4258 15.0813C57.4258 21.7321 62.8173 27.1237 69.4681 27.1237Z" fill="#BBBDC3"/>
<path d="M27.6707 3.03906H3.59766V27.1121H27.6707V3.03906Z" fill="#BBBDC3"/>
</svg>
