<svg width="123" height="62" viewBox="0 0 123 62" fill="none" xmlns="http://www.w3.org/2000/svg">
<path d="M9.57494 13.3279C8.81746 11.4028 9.1463 9.18927 9.84404 7.3276C10.5781 5.36863 11.8564 3.41504 13.7669 2.38477C13.8617 4.44913 13.2311 6.48869 12.5421 8.32782C11.9224 9.98203 11.1621 11.7444 9.90663 13.1124C9.71372 14.149 9.56587 15.1828 9.4619 16.2117C9.87802 15.1247 10.5527 14.1339 11.3946 13.3372C12.4785 12.3113 14.0909 11.5198 15.6044 11.9879C15.1611 13.6609 14.1506 15.2647 12.9539 16.3897C12.012 17.2753 10.7686 18.41 9.30392 18.4546C9.24359 19.9688 9.27769 21.4692 9.40229 22.9492C9.60892 21.8661 10.0516 20.8462 10.6913 20.0867C11.57 19.0431 12.873 17.768 14.5369 17.9813C14.4461 19.6747 13.7706 21.4096 12.83 22.7133C12.0826 23.7493 11.0958 25.0696 9.69524 25.4107C9.91951 26.865 10.2319 28.2952 10.6282 29.6946C10.632 28.623 10.8687 27.5713 11.3382 26.7278C11.9999 25.5382 13.0306 24.0547 14.6965 23.9387C14.9407 25.6 14.6098 27.416 13.9423 28.8603C13.4089 30.0148 12.6977 31.4871 11.4013 32.0962C11.9457 33.6019 12.5899 35.0654 13.3285 36.4781C13.0692 35.2605 13.0796 33.9775 13.3865 32.8231C13.8094 31.2316 14.8592 29.5598 16.5447 29.0747C17.1405 30.8317 17.0583 32.7925 16.7122 34.5784C16.4273 36.0487 15.8677 37.7757 14.6131 38.7308C15.4333 40.0544 16.3407 41.3247 17.3302 42.5333C16.7985 41.3479 16.5343 40.0516 16.6761 38.8646C16.8826 37.1355 17.3684 35.2858 19.1346 34.3639C20.1366 36.0927 20.3688 38.0323 20.4539 39.9479C20.5227 41.4966 20.2996 43.4068 19.224 44.6667C20.4071 45.8968 21.6838 47.0481 23.0473 48.1098C22.167 46.9805 21.5506 45.6554 21.42 44.3449C21.2357 42.4934 21.3258 40.4552 22.9689 39.0964C24.3742 40.5641 25.2127 42.7257 25.6237 44.6031C25.9871 46.263 26.3665 48.2277 25.5013 49.8613C27.2366 50.994 29.0891 51.9919 31.0477 52.837C29.6695 51.8549 28.5413 50.5075 28.0038 49.1163C27.2995 47.2927 26.8638 45.1197 28.2358 43.2933C30.074 44.4707 31.425 46.4795 32.4894 48.3116C33.4027 49.8837 34.3481 52.0534 33.879 53.9257C34.9634 54.2937 36.0759 54.6168 37.2149 54.8924L37.1471 55.172C36.0038 54.8953 34.8871 54.5711 33.7983 54.2021C33.0355 56.4564 30.5365 57.2011 28.5156 57.53C25.636 57.9984 22.2073 57.0907 19.749 55.2622C21.0465 53.4285 23.6937 53.2425 25.6899 53.1022L25.7159 53.1004C27.9027 52.9467 30.2679 53.152 32.467 53.7234C29.9265 52.7563 27.5494 51.5404 25.3575 50.1109L25.3252 50.162C24.124 52.1096 21.7125 52.1856 19.8196 52.0624C17.251 51.8952 14.2855 50.3334 12.5692 48.1745C14.1835 46.758 16.568 47.1545 18.4156 47.4616L18.4246 47.4631C20.4867 47.8058 22.74 48.5537 24.6315 49.7051C24.4513 49.5632 24.275 49.4131 24.1037 49.2557C22.2646 47.9445 20.5682 46.4779 19.0288 44.8787C19.011 44.8966 18.9928 44.9144 18.9746 44.932C17.4778 46.4378 15.2978 46.0435 13.5964 45.5535C11.3198 44.8977 8.95863 42.9193 7.82713 40.6481C9.58054 39.6656 11.6769 40.4752 13.3074 41.1156C15.0971 41.8184 16.9906 42.9428 18.4465 44.3761C18.2964 44.1867 18.1532 43.9889 18.0179 43.7842C16.6646 42.2568 15.4473 40.6214 14.377 38.896L14.3234 38.9296C12.6301 40.0223 10.7116 39.231 9.19101 38.4528C7.12939 37.3977 5.47268 35.0789 4.75682 32.7985C6.5857 32.2127 8.39264 33.3625 9.7973 34.273C11.3336 35.2689 12.8898 36.6891 13.958 38.3179C13.8795 38.1575 13.8064 37.9934 13.739 37.8262C12.7127 36.0356 11.8408 34.1558 11.135 32.2058L11.0986 32.2182L11.0956 32.2193C9.55598 32.8046 7.84144 31.8946 6.72365 30.8967C5.17007 29.5098 4.07506 27.3776 3.81835 25.2945C5.42356 25.0865 6.93588 26.3284 7.96985 27.3877C9.16001 28.6068 10.2282 30.0477 10.8849 31.6482C10.837 31.4743 10.7959 31.2978 10.7613 31.1194C10.1637 29.2869 9.71098 27.3971 9.41254 25.4651L9.38929 25.468L9.38142 25.4693C7.75368 25.741 6.24875 24.5035 5.34964 23.3025C4.08817 21.6172 3.43789 19.2847 3.60088 17.1706C5.2223 17.284 6.45693 18.8265 7.25757 20.0742C8.18423 21.5187 8.95267 23.1535 9.28926 24.8637C9.279 24.7277 9.27292 24.5908 9.27078 24.4535C9.02361 22.4872 8.9355 20.4805 9.0161 18.4491L9.01145 18.4488C7.35653 18.3892 6.13346 16.8527 5.50201 15.4898C4.59848 13.5394 4.45302 11.0741 5.05609 8.99635C6.63339 9.43905 7.51272 11.2484 8.03173 12.6411C8.63015 14.2469 9.04782 15.9983 9.05115 17.7395C9.13724 16.2787 9.3106 14.8063 9.57494 13.3279Z" fill="#BBBDC3"/>
<path d="M42.1707 9.72363V16.6984C42.1707 19.7661 39.3923 21.242 35.1815 21.242C31.2455 21.242 28.4238 19.7806 28.4238 16.3366V9.72363H32.3453V16.3366C32.3453 17.5666 33.4016 18.3335 35.3406 18.3335C37.1929 18.3335 38.2927 17.5377 38.2927 16.3511V9.72363H42.1707Z" fill="#BBBDC3"/>
<path d="M55.2309 18.0586V21.0829H44.3926V9.72363H48.3141V18.0586H55.2309Z" fill="#BBBDC3"/>
<path d="M66.885 12.5743V9.72363H53.3262V12.5743H58.1159V21.0829H62.0808V12.5743H66.885Z" fill="#BBBDC3"/>
<path fill-rule="evenodd" clip-rule="evenodd" d="M80.7936 10.8814C81.3146 11.4167 81.5614 12.1547 81.5614 13.182C81.5614 14.0648 81.3444 14.8173 80.982 15.3237C80.5766 15.8736 79.9542 16.3366 79.1876 16.4524L82.6178 21.0829H78.3053L75.4831 17.0746H71.9672V21.0829H68.1035V9.72363H77.1475C78.942 9.72363 80.114 10.1578 80.7936 10.8814ZM77.6686 14.1372C77.7699 13.9635 77.7985 13.7319 77.7985 13.5439C77.7985 13.3268 77.7699 13.0952 77.6686 12.9506C77.4659 12.5743 77.0605 12.4731 76.4524 12.4731H71.9816V14.5423H76.5251C77.1475 14.5423 77.5243 14.4266 77.6686 14.1372Z" fill="#BBBDC3"/>
<path fill-rule="evenodd" clip-rule="evenodd" d="M87.8383 18.9848H93.9739L94.9718 21.0829H99.1545L93.4242 9.72363H88.7504L82.6875 21.0829H86.7819L87.8383 18.9848ZM92.7434 16.4379H89.1117L90.5448 13.7031L90.9788 12.6611L91.3842 13.6885L92.7434 16.4379Z" fill="#BBBDC3"/>
<path fill-rule="evenodd" clip-rule="evenodd" d="M80.3803 23.2227C77.9527 23.2227 76.6758 24.3732 76.6758 26.0639C76.6758 27.9722 78.0159 28.9402 80.3803 28.9402C82.9831 28.9402 84.0776 27.8178 84.0776 26.0639C84.0776 24.282 82.8424 23.2227 80.3803 23.2227ZM80.3803 27.5302C78.9984 27.5302 78.5978 26.962 78.5978 26.085C78.5978 25.2222 79.033 24.6539 80.3731 24.6539C81.8397 24.6539 82.1687 25.2923 82.1687 26.085C82.1687 26.9269 81.7693 27.5302 80.3803 27.5302Z" fill="#BBBDC3"/>
<path d="M73.0784 28.8553V25.5931H69.4163V26.7788H71.3736C71.3597 26.87 71.2895 27.0454 71.1983 27.1505C70.9948 27.3891 70.4546 27.5995 69.7531 27.5995C69.0235 27.5995 68.5535 27.4101 68.3009 27.1155C68.1326 26.898 68.0343 26.5893 68.0343 26.1263C68.0343 25.6422 68.1326 25.3126 68.3219 25.0951C68.5956 24.7864 69.0585 24.6531 69.7391 24.6531C70.3495 24.6531 70.7703 24.7933 70.9668 24.9687C71.0931 25.074 71.1912 25.2214 71.2123 25.3195H73.0293C73.0224 25.1441 72.9662 24.8635 72.868 24.6601C72.433 23.7762 71.4228 23.25 69.7041 23.25C68.2097 23.25 67.2065 23.7059 66.6523 24.3935C66.2875 24.8635 66.1191 25.4528 66.1191 26.1123C66.1191 26.8419 66.3155 27.4662 66.6383 27.8802C67.1854 28.5888 68.1606 28.9395 69.3322 28.9395C70.3635 28.9395 71.072 28.694 71.521 28.3222L71.5701 28.8553H73.0784Z" fill="#BBBDC3"/>
<path d="M53.9686 25.5236C55.3927 25.6779 56.003 26.1831 56.003 27.1442C56.003 28.3087 54.8665 28.94 52.6286 28.94C50.545 28.94 49.6471 28.3508 49.3032 27.5791C49.2261 27.3967 49.191 27.1722 49.1699 27.0319H51.1904C51.2045 27.116 51.2536 27.2423 51.3237 27.3265C51.4921 27.53 51.9621 27.6492 52.7619 27.6492C53.7932 27.6492 54.0387 27.5019 54.0387 27.2284C54.0387 26.9336 53.7862 26.8705 52.8531 26.7723C52.4813 26.7372 51.892 26.6811 51.6465 26.6601C49.8646 26.4987 49.2051 25.9445 49.2051 24.9974C49.2051 24.0152 50.3696 23.2646 52.4953 23.2646C54.3825 23.2646 55.2594 23.8259 55.6242 24.5274C55.7364 24.7379 55.8065 24.9763 55.8276 25.1447H53.8072C53.8001 25.0675 53.7721 24.9904 53.695 24.8921C53.5406 24.6887 53.1477 24.5554 52.4461 24.5554C51.457 24.5554 51.1974 24.6747 51.1974 24.9272C51.1974 25.2079 51.5272 25.2711 52.6286 25.3903C53.0565 25.4253 53.7371 25.4955 53.9686 25.5236Z" fill="#BBBDC3"/>
<path fill-rule="evenodd" clip-rule="evenodd" d="M33.8265 23.8186C34.1983 24.1133 34.4087 24.6114 34.4087 25.3339C34.4087 25.9233 34.2614 26.3652 33.9808 26.6739C33.602 27.1088 32.9776 27.3053 32.1638 27.3123C31.9112 27.3194 29.7505 27.3123 29.7505 27.3123V28.8557H27.8633V23.3486H32.1357C32.8934 23.3486 33.4687 23.5029 33.8265 23.8186ZM32.4304 25.7619C32.4865 25.6637 32.5146 25.5374 32.5146 25.362C32.5146 25.1797 32.4794 25.0253 32.4163 24.9411C32.2971 24.7657 32.0726 24.6815 31.7078 24.6815H29.7364V26.0285H31.6937C32.0866 26.0285 32.3181 25.9373 32.4304 25.7619Z" fill="#BBBDC3"/>
<path fill-rule="evenodd" clip-rule="evenodd" d="M41.3127 23.9099C41.5654 24.1694 41.6846 24.5272 41.6846 25.0253C41.6846 25.4532 41.5793 25.818 41.4039 26.0635C41.2075 26.3301 40.9059 26.5546 40.534 26.6108L42.1967 28.8557H40.1061L38.738 26.9124H37.0333V28.8557H35.1602V23.3486H39.5449C40.4148 23.3486 40.983 23.5591 41.3127 23.9099ZM39.7974 25.4883C39.8465 25.4042 39.8605 25.2919 39.8605 25.2006C39.8605 25.0955 39.8465 24.9832 39.7974 24.9131C39.6992 24.7306 39.5028 24.6815 39.2082 24.6815H37.0403V25.6847H39.2432C39.5449 25.6847 39.7273 25.6286 39.7974 25.4883Z" fill="#BBBDC3"/>
<path d="M48.6006 28.8557V27.4877H44.651V26.7721H48.4393V25.4322H44.651V24.7236H48.5515V23.3486H42.7988V28.8557H48.6006Z" fill="#BBBDC3"/>
<path d="M62.8293 24.7306V23.3486H56.2559V24.7306H58.5779V28.8557H60.5001V24.7306H62.8293Z" fill="#BBBDC3"/>
<path d="M65.357 23.3486V28.8557H63.4277V23.3486H65.357Z" fill="#BBBDC3"/>
<path d="M75.914 23.3486V28.8557H73.9844V23.3486H75.914Z" fill="#BBBDC3"/>
<path d="M91.5224 23.3486V26.73C91.5224 28.2173 90.1751 28.9329 88.1339 28.9329C86.2262 28.9329 84.8574 28.2243 84.8574 26.5546V23.3486H86.7592V26.5546C86.7592 27.1509 87.2707 27.5228 88.2114 27.5228C89.1092 27.5228 89.6422 27.137 89.6422 26.5617V23.3486H91.5224Z" fill="#BBBDC3"/>
<path d="M99.0948 27.1442C99.0948 26.1831 98.4844 25.6779 97.0608 25.5236C96.8283 25.4955 96.1486 25.4253 95.7206 25.3903C94.6189 25.2711 94.2886 25.2079 94.2886 24.9272C94.2886 24.6747 94.5486 24.5554 95.5382 24.5554C96.2393 24.5554 96.6327 24.6887 96.7865 24.8921C96.864 24.9904 96.8914 25.0675 96.8986 25.1447H98.9196C98.8981 24.9763 98.8278 24.7379 98.7157 24.5274C98.3508 23.8259 97.4745 23.2646 95.5871 23.2646C93.4612 23.2646 92.2963 24.0152 92.2963 24.9974C92.2963 25.9445 92.9568 26.4987 94.7381 26.6601L94.8526 26.6702L95.0434 26.6876L95.9448 26.7723C96.8783 26.8705 97.1299 26.9336 97.1299 27.2284C97.1299 27.5019 96.8855 27.6492 95.8541 27.6492C95.0541 27.6492 94.5843 27.53 94.415 27.3265C94.3459 27.2423 94.2958 27.116 94.2827 27.0319H92.2617C92.2832 27.1722 92.3178 27.3967 92.3953 27.5791C92.7386 28.3508 93.6365 28.94 95.7206 28.94C97.9586 28.94 99.0948 28.3087 99.0948 27.1442Z" fill="#BBBDC3"/>
<path fill-rule="evenodd" clip-rule="evenodd" d="M50.0363 30.9639C48.4588 30.9639 47.6289 31.7117 47.6289 32.8105C47.6289 34.0506 48.4998 34.6798 50.0363 34.6798C51.7279 34.6798 52.4392 33.9504 52.4392 32.8105C52.4392 31.6524 51.6367 30.9639 50.0363 30.9639ZM50.0363 33.7634C49.1381 33.7634 48.8782 33.394 48.8782 32.8241C48.8782 32.2634 49.1609 31.894 50.0318 31.894C50.9847 31.894 51.199 32.3089 51.199 32.8241C51.199 33.3713 50.9391 33.7634 50.0363 33.7634Z" fill="#BBBDC3"/>
<path d="M41.2633 33.5136C41.2633 32.8889 40.8666 32.5605 39.941 32.4603C39.7905 32.442 39.3483 32.3965 39.0701 32.3737C38.3543 32.2961 38.14 32.2551 38.14 32.0728C38.14 31.9086 38.3087 31.8311 38.9516 31.8311C39.4075 31.8311 39.6628 31.9177 39.7632 32.0499C39.8133 32.1138 39.8315 32.1639 39.8362 32.2141H41.1493C41.1356 32.1046 41.09 31.9496 41.017 31.8129C40.7799 31.3569 40.21 30.9922 38.9834 30.9922C37.602 30.9922 36.8452 31.48 36.8452 32.1183C36.8452 32.7339 37.2737 33.0941 38.4318 33.1989C38.5914 33.2126 38.9744 33.2491 39.2161 33.2719C39.8225 33.3357 39.9865 33.3768 39.9865 33.5683C39.9865 33.7461 39.827 33.8418 39.1568 33.8418C38.637 33.8418 38.3315 33.7643 38.222 33.6321C38.1765 33.5773 38.1445 33.4953 38.1355 33.4406H36.8223C36.836 33.5318 36.8587 33.6776 36.9089 33.7963C37.1324 34.2977 37.716 34.6807 39.0701 34.6807C40.5246 34.6807 41.2633 34.2704 41.2633 33.5136Z" fill="#BBBDC3"/>
<path fill-rule="evenodd" clip-rule="evenodd" d="M32.161 33.6129C32.161 33.8591 32.0925 34.1008 31.9558 34.2604C31.7461 34.5158 31.3539 34.6251 30.8479 34.6251H27.6699V31.0459H30.7612C31.2536 31.0459 31.5683 31.1645 31.7415 31.3423C31.8965 31.4973 31.965 31.7025 31.965 31.935C31.965 32.1676 31.9102 32.3591 31.7917 32.5004C31.6959 32.619 31.5318 32.7101 31.3586 32.733C31.6138 32.7648 31.8555 32.8925 31.9923 33.0703C32.1063 33.2025 32.161 33.4032 32.161 33.6129ZM30.6245 32.3591C30.67 32.3089 30.6974 32.2359 30.6974 32.1494C30.6974 32.0627 30.67 31.9897 30.6107 31.9397C30.547 31.8803 30.4283 31.8575 30.2551 31.8575H28.8645V32.4411H30.287C30.442 32.4411 30.5607 32.4184 30.6245 32.3591ZM30.4193 33.8136C30.6335 33.8136 30.7612 33.7862 30.8342 33.7179C30.8797 33.6722 30.898 33.6039 30.898 33.5172C30.898 33.426 30.8752 33.3577 30.8205 33.3029C30.7522 33.2437 30.6335 33.2163 30.433 33.2163H28.8645V33.8136H30.4193Z" fill="#BBBDC3"/>
<path d="M36.4543 33.7361V34.6251H32.6836V31.0459H36.4223V31.9397H33.8872V32.4001H36.3493V33.271H33.8872V33.7361H36.4543Z" fill="#BBBDC3"/>
<path d="M45.6999 31.0459V31.9442H44.1861V34.6251H42.937V31.9442H41.4277V31.0459H45.6999Z" fill="#BBBDC3"/>
<path d="M56.6118 31.0459V31.9532H54.1816V32.4594H56.4978V33.3577H54.1816V34.6251H52.9551V31.0459H56.6118Z" fill="#BBBDC3"/>
<path d="M62.7897 31.9442V31.0459H58.5176V31.9442H60.0268V34.6251H61.2761V31.9442H62.7897Z" fill="#BBBDC3"/>
<path d="M67.4506 31.0459V34.6251H66.2286V33.3257H64.3957V34.6251H63.1738V31.0459H64.3957V32.3499H66.2286V31.0459H67.4506Z" fill="#BBBDC3"/>
<path d="M71.9445 34.6251V33.7361H69.3775V33.271H71.8396V32.4001H69.3775V31.9397H71.9125V31.0459H68.1738V34.6251H71.9445Z" fill="#BBBDC3"/>
<path d="M79.504 31.0459H80.6843L79.3764 34.6251H78.0362C78.0362 34.6251 77.3197 32.4868 77.3149 32.4274C77.3113 32.4868 76.59 34.6251 76.59 34.6251H75.2546L73.9141 31.0459H75.2403C75.2403 31.0459 76.0165 33.2983 76.0165 33.353C76.0165 33.2983 76.7318 31.0459 76.7318 31.0459H78.0136C78.0136 31.0459 78.7337 33.2983 78.7337 33.353C78.7337 33.2983 79.504 31.0459 79.504 31.0459Z" fill="#BBBDC3"/>
<path fill-rule="evenodd" clip-rule="evenodd" d="M83.0264 30.9639C81.449 30.9639 80.6191 31.7117 80.6191 32.8105C80.6191 34.0506 81.4895 34.6798 83.0264 34.6798C84.7183 34.6798 85.4289 33.9504 85.4289 32.8105C85.4289 31.6524 84.6265 30.9639 83.0264 30.9639ZM83.0264 33.7634C82.1286 33.7634 81.8687 33.394 81.8687 32.8241C81.8687 32.2634 82.1513 31.894 83.0216 31.894C83.9755 31.894 84.1889 32.3089 84.1889 32.8241C84.1889 33.3713 83.929 33.7634 83.0264 33.7634Z" fill="#BBBDC3"/>
<path fill-rule="evenodd" clip-rule="evenodd" d="M89.9443 31.4107C90.1077 31.5795 90.1852 31.812 90.1852 32.1357C90.1852 32.4138 90.1172 32.6509 90.0027 32.8105C89.8752 32.9838 89.6796 33.1297 89.4376 33.1661L90.5178 34.6251H89.1598L88.2703 33.3622H87.1627V34.6251H85.9453V31.0459H88.7949C89.3601 31.0459 89.7297 31.1828 89.9443 31.4107ZM88.9595 32.4366C88.9905 32.3819 89 32.3089 89 32.2497C89 32.1812 88.9905 32.1084 88.9595 32.0627C88.8951 31.9442 88.7675 31.9122 88.5755 31.9122H87.1674V32.5643H88.5982C88.7949 32.5643 88.913 32.5278 88.9595 32.4366Z" fill="#BBBDC3"/>
<path d="M94.3249 34.6251V33.6722H92.1454V31.0459H90.9102V34.6251H94.3249Z" fill="#BBBDC3"/>
<path fill-rule="evenodd" clip-rule="evenodd" d="M99.1601 32.7694C99.1601 33.3257 99.1052 33.6266 98.9419 33.9093C98.6951 34.3606 98.2074 34.6251 97.3454 34.6251H94.8105V31.0459H97.318C98.1752 31.0459 98.682 31.2876 98.9324 31.7025C99.11 31.9807 99.1601 32.277 99.1601 32.7694ZM97.1129 33.7452C97.5004 33.7452 97.7198 33.654 97.8521 33.4534C97.9344 33.3302 97.957 33.043 97.957 32.7923C97.9523 32.5643 97.9249 32.3226 97.8521 32.2132C97.7102 31.9989 97.4968 31.9214 97.1224 31.9214H96.0327V33.7452H97.1129Z" fill="#BBBDC3"/>
<path d="M50.2491 52.0332H48.3598C48.3598 52.0332 47.1269 55.637 47.1269 55.7245C47.1269 55.637 45.9743 52.0332 45.9743 52.0332H43.9244C43.9244 52.0332 42.779 55.637 42.779 55.7245C42.779 55.637 41.5389 52.0332 41.5389 52.0332H39.416L41.5607 57.7597H43.6982C43.6982 57.7597 44.8508 54.3384 44.8581 54.2436C44.8655 54.3384 46.0107 57.7597 46.0107 57.7597H48.1554L50.2491 52.0332Z" fill="#BBBDC3"/>
<path d="M52.8343 57.7597V52.0332H50.8281V57.7597H52.8343Z" fill="#BBBDC3"/>
<path d="M60.6378 52.0332V57.7597H58.6826L55.8449 54.5719V57.7597H53.9629V52.0332H56.02L58.7702 55.1482V52.0332H60.6378Z" fill="#BBBDC3"/>
<path d="M68.4542 57.7597V52.0332H66.5867V55.1482L63.8365 52.0332H61.7793V57.7597H63.6614V54.5719L66.4992 57.7597H68.4542Z" fill="#BBBDC3"/>
<path d="M75.6273 56.3372V57.7597H69.5938V52.0332H75.576V53.463H71.5197V54.1999H75.4592V55.5932H71.5197V56.3372H75.6273Z" fill="#BBBDC3"/>
<path fill-rule="evenodd" clip-rule="evenodd" d="M83.337 53.7767C83.337 53.2588 83.213 52.8868 82.9507 52.6168C82.6073 52.2521 82.0171 52.0332 81.1121 52.0332H76.5527V57.7597H78.501V55.739H80.2739L81.6963 57.7597H83.8699L82.1411 55.4254C82.5274 55.367 82.841 55.1336 83.046 54.8564C83.2273 54.6011 83.337 54.2217 83.337 53.7767ZM81.44 53.9591C81.44 54.0539 81.4257 54.1707 81.3744 54.2582C81.3017 54.4041 81.1121 54.4624 80.7985 54.4624H78.5081V53.4193H80.7616C81.068 53.4193 81.2731 53.4703 81.3744 53.66C81.4257 53.733 81.44 53.8497 81.44 53.9591Z" fill="#BBBDC3"/>
<path d="M44.4258 41.9301L43.6347 39.4951L42.8434 41.9301H40.2832L42.3545 43.4349L41.5634 45.8698L43.6347 44.365L45.7058 45.8698L44.9147 43.4349L46.986 41.9301H44.4258Z" fill="#BBBDC3"/>
<path d="M52.7674 39.4932L53.5747 41.9281H56.1872L54.0737 43.433L54.881 45.8678L52.7674 44.363L50.6539 45.8678L51.4613 43.433L49.3477 41.9281H51.9601L52.7674 39.4932Z" fill="#BBBDC3"/>
<path d="M62.6353 41.9281L61.8281 39.4932L61.0208 41.9281H58.4082L60.5218 43.433L59.7145 45.8678L61.8281 44.363L63.9416 45.8678L63.1343 43.433L65.2479 41.9281H62.6353Z" fill="#BBBDC3"/>
<path d="M70.8905 39.4932L71.6978 41.9281H74.3103L72.1968 43.433L73.0041 45.8678L70.8905 44.363L68.777 45.8678L69.5843 43.433L67.4707 41.9281H70.0833L70.8905 39.4932Z" fill="#BBBDC3"/>
<path d="M80.8151 41.9281L80.0234 39.4932L79.2318 41.9281H76.6719L78.7429 43.433L77.9524 45.8678L80.0234 44.363L82.0945 45.8678L81.304 43.433L83.375 41.9281H80.8151Z" fill="#BBBDC3"/>
<path d="M114.031 13.3809C114.788 11.4559 114.459 9.24212 113.761 7.38045C113.027 5.42161 111.749 3.46777 109.839 2.4375C109.743 4.50198 110.374 6.54142 111.063 8.38056C111.683 10.0346 112.443 11.7969 113.698 13.1648C113.891 14.2012 114.039 15.2347 114.143 16.2634C113.727 15.1768 113.053 14.1865 112.211 13.39C111.127 12.3641 109.514 11.5726 108.001 12.0407C108.445 13.7136 109.455 15.3175 110.652 16.4426C111.594 17.3281 112.837 18.4627 114.301 18.5074C114.362 20.0218 114.328 21.5223 114.202 23.0024C113.996 21.9193 113.554 20.8994 112.914 20.1399C112.035 19.0962 110.732 17.8212 109.068 18.0346C109.159 19.7279 109.835 21.4628 110.776 22.7665C111.522 23.8025 112.509 25.1229 113.91 25.4641C113.686 26.9181 113.374 28.348 112.977 29.7473C112.973 28.6759 112.737 27.6242 112.267 26.7806C111.606 25.5912 110.574 24.1076 108.909 23.9916C108.664 25.6528 108.996 27.4688 109.663 28.9132C110.196 30.0677 110.908 31.5399 112.204 32.1491C111.659 33.655 111.015 35.1189 110.276 36.5317C110.536 35.3138 110.525 34.0306 110.219 32.8758C109.796 31.2843 108.746 29.6125 107.06 29.1274C106.464 30.8846 106.547 32.8453 106.894 34.6311C107.179 36.1016 107.738 37.8285 108.992 38.7837C108.172 40.108 107.264 41.3789 106.274 42.5881C106.807 41.4022 107.07 40.1051 106.928 38.9177C106.722 37.1884 106.237 35.3388 104.471 34.4171C103.468 36.1459 103.236 38.0855 103.151 40.0012C103.082 41.55 103.305 43.4603 104.381 44.7203C103.197 45.9501 101.922 47.101 100.559 48.1624C101.439 47.0331 102.055 45.7081 102.185 44.3978C102.37 42.5462 102.281 40.5081 100.636 39.1493C99.2318 40.617 98.3924 42.7785 97.9822 44.6559C97.6186 46.3157 97.2394 48.2805 98.1039 49.9141C96.369 51.0471 94.5162 52.0451 92.5572 52.8905C93.9355 51.9083 95.0635 50.5606 95.6012 49.1692C96.3059 47.3456 96.741 45.1725 95.3699 43.3462C93.5314 44.5236 92.1805 46.5323 91.1157 48.3645C90.2024 49.9367 89.2569 52.1065 89.7267 53.9788C88.6417 54.3468 87.5293 54.6699 86.3906 54.9455L86.4586 55.2251C87.6008 54.9484 88.718 54.6242 89.8066 54.2552C90.5697 56.5094 93.0687 57.2543 95.0897 57.583C97.9691 58.0515 101.398 57.1439 103.857 55.3153C102.558 53.4816 99.9114 53.2956 97.9155 53.1553L97.8892 53.1535C95.7025 52.9998 93.337 53.2051 91.1384 53.7766C93.678 52.8095 96.0555 51.5934 98.2481 50.1638L98.2779 50.2115C99.4786 52.1623 101.892 52.2386 103.785 52.1154C106.355 51.9482 109.32 50.3864 111.036 48.2275C109.421 46.8113 107.038 47.2075 105.19 47.5145L105.18 47.5162C103.119 47.8588 100.866 48.6063 98.9754 49.7573C99.1555 49.6156 99.3307 49.4657 99.5024 49.3084C101.341 47.9975 103.036 46.5311 104.576 44.9322C104.597 44.9535 104.619 44.9745 104.64 44.9954C106.138 46.4895 108.311 46.0953 110.009 45.6063C112.286 44.9505 114.647 42.9721 115.779 40.7009C114.025 39.7185 111.929 40.5279 110.299 41.1684C108.507 41.8719 106.612 42.9975 105.155 44.4327C105.305 44.2431 105.45 44.045 105.586 43.8399C106.939 42.3117 108.157 40.6753 109.228 38.9488L109.275 38.9776L109.287 38.9851C110.978 40.0739 112.896 39.2833 114.415 38.5056C116.476 37.4506 118.133 35.1318 118.849 32.8514C117.02 32.2656 115.213 33.4153 113.809 34.3259C112.271 35.3223 110.714 36.7435 109.645 38.3735C109.724 38.2127 109.798 38.0482 109.866 37.8806C110.893 36.0894 111.764 34.2092 112.47 32.2587L112.507 32.2711L112.513 32.2735C114.052 32.8561 115.766 31.9468 116.883 30.9495C118.435 29.5626 119.531 27.4304 119.787 25.3473C118.182 25.1394 116.669 26.3813 115.636 27.4404C114.446 28.6604 113.376 30.1023 112.719 31.704C112.768 31.5292 112.81 31.3517 112.844 31.1722C113.442 29.3399 113.895 27.4502 114.193 25.5184L114.238 25.5244C115.86 25.7869 117.36 24.553 118.256 23.3553C119.518 21.67 120.168 19.3375 120.004 17.2233C118.384 17.3368 117.149 18.8792 116.349 20.1271C115.421 21.5723 114.652 23.208 114.316 24.9193C114.326 24.7824 114.332 24.6448 114.335 24.5068C114.582 22.5403 114.67 20.5335 114.589 18.5021C116.245 18.444 117.472 16.9064 118.104 15.5429C119.006 13.5926 119.152 11.1272 118.55 9.04956C116.972 9.49227 116.092 11.3014 115.574 12.6941C114.975 14.2999 114.558 16.0515 114.554 17.7928C114.468 16.3319 114.294 14.8594 114.031 13.3809Z" fill="#BBBDC3"/>
</svg>
