<svg width="198" height="10" viewBox="0 0 198 10" fill="none" xmlns="http://www.w3.org/2000/svg">
<path fill-rule="evenodd" clip-rule="evenodd" d="M4.55158 7.98193C8.7481 7.38333 19.7767 7.35339 49.7154 7.29353C96.4656 7.20374 133.569 6.54528 143.881 5.58752C144.7 5.49773 79.1678 4.83927 72.438 5.31815C61.9467 6.09633 11.8443 5.43787 1.76241 4.53996C-1.10351 4.30052 -0.0287783 3.46247 1.83918 3.28289C4.75626 2.98359 12.5864 3.01353 34.0552 3.07339C49.1525 3.10332 169.265 2.41492 182.392 1.18778C189.761 0.499388 194.239 -0.129145 196.286 0.0205059C198.001 0.140227 198.026 0.499388 196.542 1.48708C195.544 2.14555 196.67 2.53464 197.387 2.71422C198.487 3.01352 198.026 4.03115 196.645 4.83926C194.777 5.94668 191.553 5.91675 193.088 4.80933C193.421 4.56989 193.497 3.97129 192.32 4.09101C188.891 4.45017 164.659 6.90444 158.083 7.32346C87.8679 11.8728 19.3417 8.55061 4.83303 9.65802C-0.310264 10.077 2.04392 8.34109 4.55158 7.98193Z" fill="#5B99D1"/>
</svg>
