<svg width="173" height="62" viewBox="0 0 173 62" fill="none" xmlns="http://www.w3.org/2000/svg">
<path d="M18.0604 26.6909C18.0123 27.8211 17.9883 29.2522 17.9883 30.9837C17.9883 32.7152 18.0123 34.1581 18.0604 35.3125C18.1085 36.4428 18.2046 37.3446 18.3489 38.018C18.5173 38.6913 18.7457 39.1603 19.0344 39.4249C19.347 39.6894 19.7558 39.8217 20.2609 39.8217C20.7659 39.8217 21.1627 39.6894 21.4513 39.4249C21.7639 39.1603 21.9924 38.6913 22.1367 38.018C22.3051 37.3446 22.4132 36.4428 22.4614 35.3125C22.5095 34.1581 22.5335 32.7152 22.5335 30.9837C22.5335 29.2522 22.5095 27.8211 22.4614 26.6909C22.4132 25.5365 22.3051 24.6226 22.1367 23.9493C21.9924 23.2759 21.7639 22.8069 21.4513 22.5424C21.1627 22.2778 20.7659 22.1455 20.2609 22.1455C19.7558 22.1455 19.347 22.2778 19.0344 22.5424C18.7457 22.8069 18.5173 23.2759 18.3489 23.9493C18.2046 24.6226 18.1085 25.5365 18.0604 26.6909Z" fill="#BBBDC3"/>
<path fill-rule="evenodd" clip-rule="evenodd" d="M19.3379 4.18564C10.6397 4.37177 3.72579 11.5495 3.86536 20.2485L4.03685 30.9368L3.86536 41.6251C3.72579 50.3242 10.6397 57.5019 19.3379 57.6879L30.0278 57.9167L40.7176 57.6879C49.4158 57.5019 56.3299 50.3242 56.1903 41.6251L56.0188 30.9368L56.1903 20.2485C56.3299 11.5495 49.4158 4.37177 40.7176 4.18564L30.0278 3.95703L19.3379 4.18564ZM30.3971 44.547L26.3569 48.0462L22.6773 44.078C22.3887 44.1262 22.1001 44.1623 21.8116 44.1863C21.547 44.2343 21.2463 44.2585 20.9097 44.2585H20.2604C18.5529 44.2585 17.1099 44.03 15.9315 43.5731C14.7531 43.1161 13.8032 42.3585 13.0817 41.3004C12.3603 40.2182 11.8432 38.8353 11.5305 37.152C11.2179 35.4445 11.0616 33.3882 11.0616 30.9834C11.0616 28.5784 11.2179 26.5343 11.5305 24.8508C11.8432 23.1433 12.3603 21.7605 13.0817 20.7023C13.8032 19.6201 14.7531 18.8385 15.9315 18.3575C17.1099 17.8524 18.5529 17.5999 20.2604 17.5999C21.9679 17.5999 23.4108 17.8524 24.5892 18.3575C25.7676 18.8385 26.7176 19.6201 27.4391 20.7023C28.1605 21.7605 28.6776 23.1433 28.9903 24.8508C29.3029 26.5343 29.4592 28.5784 29.4592 30.9834C29.4592 33.4603 29.2909 35.5526 28.9541 37.2601C28.6175 38.9676 28.0644 40.3625 27.2948 41.4447L30.3971 44.547ZM41.7843 27.3759V25.933C41.7843 24.466 41.64 23.4679 41.3514 22.9389C41.0629 22.4098 40.5939 22.1452 39.9445 22.1452C39.4395 22.1452 39.0307 22.2775 38.7181 22.5421C38.4294 22.8066 38.201 23.2756 38.0326 23.949C37.8883 24.6223 37.7922 25.5362 37.744 26.6906C37.6959 27.8208 37.6718 29.2518 37.6718 30.9834C37.6718 32.7149 37.6959 34.1578 37.744 35.3121C37.7922 36.4425 37.8883 37.3443 38.0326 38.0177C38.201 38.691 38.4294 39.16 38.7181 39.4246C39.0307 39.6891 39.4395 39.8214 39.9445 39.8214C40.3533 39.8214 40.6901 39.7252 40.9546 39.5328C41.2192 39.3163 41.4235 38.9676 41.5678 38.4867C41.7121 38.0057 41.8083 37.3683 41.8565 36.5747C41.9286 35.7571 41.9646 34.735 41.9646 33.5085H48.4579V35.4204C48.4579 37.2241 48.2174 38.7031 47.7364 39.8574C47.2555 41.0118 46.6182 41.9257 45.8246 42.599C45.0309 43.2484 44.1171 43.6812 43.0829 43.8977C42.0729 44.1382 41.0267 44.2585 39.9445 44.2585C38.0686 44.2585 36.5296 44.03 35.3271 43.5731C34.1247 43.1161 33.1867 42.3585 32.5133 41.3004C31.8399 40.2182 31.3709 38.8353 31.1064 37.152C30.866 35.4445 30.7457 33.3882 30.7457 30.9834C30.7457 28.5303 30.89 26.4501 31.1786 24.7426C31.4912 23.0351 32.0083 21.6522 32.7298 20.5941C33.4512 19.5359 34.4012 18.7783 35.5795 18.3214C36.7579 17.8404 38.213 17.5999 39.9445 17.5999C41.4597 17.5999 42.7462 17.7924 43.8044 18.1772C44.8625 18.562 45.7163 19.1151 46.3657 19.8365C47.039 20.534 47.52 21.3877 47.8086 22.3978C48.1212 23.3837 48.2775 24.5021 48.2775 25.7527V27.3759H41.7843Z" fill="#BBBDC3"/>
<path fill-rule="evenodd" clip-rule="evenodd" d="M87.7159 22.3415L93.5969 28.4445L99.4779 22.3415H109.696L98.698 32.8039L109.696 43.2662H99.4779L93.5969 37.1476L87.7159 43.2662H77.4826L88.4803 32.8039L77.4826 22.3415H87.7159ZM87.1489 32.8039L75.1875 21.4248H88.1068L93.5969 27.1221L99.0869 21.4248H111.545V21.4093H132.659C137.487 21.3599 141.574 25.3973 141.508 30.2416C141.507 31.9841 141.036 33.5903 140.093 35.0198C139.383 36.1019 138.483 36.9922 137.406 37.6692L141.908 43.4499V39.701C141.908 36.7638 144.103 34.8912 146.628 33.6494C149.178 32.3957 152.395 31.6123 155.074 30.9786L155.078 30.9777L155.109 30.9701C156.76 30.5639 158.166 30.2181 159.168 29.8452C159.674 29.6562 160.007 29.4851 160.197 29.3397C160.22 29.3212 160.24 29.3049 160.257 29.2908C160.199 29.2375 160.081 29.1579 159.847 29.0663C159.302 28.853 158.372 28.6923 156.963 28.6919C155.458 28.7074 154.179 28.8299 153.305 29.1362C152.875 29.2872 152.615 29.4592 152.469 29.6207C152.345 29.7593 152.271 29.9238 152.278 30.1819L152.3 31.1206H142.235V30.2039C142.235 28.322 142.604 26.7485 143.343 25.4593C144.086 24.1643 145.168 23.2187 146.487 22.5406C149.075 21.2099 152.641 20.8799 156.616 20.8799C160.687 20.8799 164.067 21.3496 166.46 22.559C167.671 23.1719 168.655 23.9875 169.332 25.0483C170.01 26.1118 170.342 27.3636 170.342 28.7871C170.342 31.4213 168.753 33.0992 166.804 34.1927C164.913 35.2545 162.532 35.8575 160.554 36.3399H169.999V44.1519H142.454L142.466 44.1675H131.433L127.486 39.0608H121.556V44.1675H111.974L111.991 44.183H99.0863L93.5969 38.4719L88.1075 44.183H75.1875L87.1489 32.8039ZM111.545 43.7585V21.8492L100.029 32.8039L111.545 43.7585ZM127.938 38.1441L131.885 43.2507H140.589L136.018 37.3811C136.304 37.2485 136.577 37.1019 136.84 36.9414C137.84 36.3291 138.671 35.5156 139.325 34.5165C140.168 33.2398 140.589 31.8074 140.589 30.235C140.652 25.9068 136.986 22.2792 132.665 22.3259H112.463V43.2507H120.637V38.1441H127.938ZM155.743 37.2566C156.029 36.9066 156.548 36.609 157.236 36.3399C158.048 36.0223 159.092 35.7442 160.267 35.4662C164.291 34.4853 169.424 33.1464 169.424 28.7871C169.424 23.6804 164.682 21.7966 156.616 21.7966C149.033 21.7966 143.654 23.0321 143.188 29.2871C143.165 29.5815 143.153 29.8869 143.153 30.2039H151.36C151.358 30.1693 151.358 30.1353 151.36 30.1018C151.404 28.2419 153.972 27.8057 156.959 27.7751C159.876 27.7751 161.218 28.429 161.218 29.3165C161.218 30.4119 158.629 31.0487 155.379 31.8479L155.291 31.8697C149.893 33.1464 142.826 34.9213 142.826 39.701V43.2351H169.08V37.2566H155.743ZM160.309 29.3611C160.309 29.3611 160.303 29.3553 160.301 29.3418C160.309 29.354 160.309 29.3611 160.309 29.3611ZM131.481 30.235C131.481 29.745 131.096 29.3614 130.605 29.3614H121.556V31.0931H130.605C130.869 31.0931 131.054 31.0131 131.219 30.8479C131.408 30.6598 131.481 30.4717 131.481 30.235ZM132.4 30.235C132.4 29.2385 131.604 28.4445 130.605 28.4445H120.637V32.0098H130.605C131.104 32.0098 131.526 31.8386 131.869 31.4961C132.228 31.138 132.4 30.7177 132.4 30.235Z" fill="#BBBDC3"/>
<path d="M78.2383 58.362H82.1534V53.0013L86.0757 58.362H88.0332L91.9557 53.0013V58.362H95.8708V48.3135H90.977L87.0546 53.3377L83.1396 48.3135H78.2383V58.362Z" fill="#BBBDC3"/>
<path d="M104.118 48.0674C100.338 48.0749 97.2449 49.1664 97.2598 52.972V53.7046C97.2449 57.5027 100.338 58.6018 104.118 58.6092C107.891 58.6018 110.984 57.5027 110.97 53.7046V52.972C110.97 49.1739 107.899 48.0674 104.118 48.0674ZM107.055 53.458C107.077 55.1028 105.717 55.4019 104.118 55.4243C102.512 55.4019 101.152 55.1028 101.175 53.458V53.2113C101.152 51.5738 102.512 51.2748 104.118 51.2523C105.717 51.2748 107.077 51.5738 107.055 53.2113V53.458Z" fill="#BBBDC3"/>
<path d="M121.937 53.3528C121.937 54.3621 121.362 55.192 120.346 55.192H116.058V51.5135H120.346C121.362 51.5135 121.937 52.3359 121.937 53.3528ZM112.143 48.3286V58.3769H121.078C123.836 58.4144 125.883 56.0817 125.86 53.3528C125.883 50.6089 123.836 48.2911 121.078 48.3286H112.143Z" fill="#BBBDC3"/>
<path d="M136.762 53.4649C136.784 55.1171 135.425 55.4013 133.825 55.4237C132.22 55.4013 130.868 55.1171 130.882 53.4649V48.3135H126.967V53.7116C126.952 57.5097 130.06 58.6013 133.825 58.6086C137.591 58.6013 140.699 57.5097 140.685 53.7116V48.3135H136.762V53.4649Z" fill="#BBBDC3"/>
<path d="M142.447 48.3135V58.362H154.201V55.177H146.362V48.3135H142.447Z" fill="#BBBDC3"/>
<path d="M155.537 58.3775H167.291V55.7981H159.452V54.5121H167.291V52.187H159.452V50.9009H167.291V48.3291H155.537V58.3775Z" fill="#BBBDC3"/>
<path d="M80.4931 10.0333V7.91564H86.2959C86.577 7.91564 86.8217 8.01735 87.0212 8.22999C87.2297 8.43354 87.3295 8.68312 87.3295 8.97901C87.3295 9.26579 87.2297 9.51537 87.0212 9.72815C86.8217 9.93156 86.577 10.0333 86.2959 10.0333H80.4931ZM75.7422 4.28152V16.7097H80.4931V13.6766H87.4837C89.9952 13.7137 92.1259 11.5405 92.0896 8.97901C92.1259 6.40838 89.9952 4.25368 87.4837 4.28152H75.7422Z" fill="#BBBDC3"/>
<path d="M101.546 3.95703C96.9583 3.96627 93.2046 5.31641 93.2227 10.0233V10.9295C93.2046 15.6271 96.9583 16.9864 101.546 16.9956C106.124 16.9864 109.879 15.6271 109.86 10.9295V10.0233C109.86 5.32565 106.134 3.95703 101.546 3.95703ZM105.109 10.6243C105.136 12.6587 103.486 13.0286 101.546 13.0564C99.5967 13.0286 97.9466 12.6587 97.9738 10.6243V10.3192C97.9466 8.294 99.5967 7.92411 101.546 7.89641C103.486 7.92411 105.136 8.294 105.109 10.3192V10.6243Z" fill="#BBBDC3"/>
<path d="M128.384 12.1506L125.564 4.28125H120.215L117.386 12.1506L114.566 4.28125H109.217L114.566 16.7095H120.215L122.89 10.4954L125.564 16.7095H131.212L136.563 4.28125H131.212L128.384 12.1506Z" fill="#BBBDC3"/>
<path d="M136.924 16.7095H151.185V13.5192H141.674V11.9286H151.185V9.05274H141.674V7.46225H151.185V4.28125H136.924V16.7095Z" fill="#BBBDC3"/>
<path d="M153.717 4.27175V16.7001H158.467V13.667H162.711L165.005 16.7001H170.064L167.407 13.2139C168.205 12.8347 168.849 12.2614 169.329 11.5124C169.82 10.7542 170.064 9.90346 170.064 8.96937C170.101 6.39861 167.969 4.24405 165.459 4.27175H153.717ZM164.261 7.906C164.841 7.906 165.304 8.3776 165.304 8.96937C165.304 9.25602 165.204 9.50574 164.996 9.71838C164.796 9.92193 164.551 10.0236 164.261 10.0236H158.467V7.906H164.261Z" fill="#BBBDC3"/>
</svg>
